<?xml version="1.0" encoding="UTF-8"?>
<svg id="Layer_1" data-name="Layer 1" xmlns="http://www.w3.org/2000/svg" xmlns:xlink="http://www.w3.org/1999/xlink" viewBox="0 0 2560 2560">
  <defs>
    <style>
      .cls-1 {
        fill: url(#linear-gradient-2);
      }

      .cls-2 {
        fill: url(#linear-gradient);
      }
    </style>
    <linearGradient id="linear-gradient" x1="0" y1="1280" x2="2560" y2="1280" gradientUnits="userSpaceOnUse">
      <stop offset="0" stop-color="#121212"/>
      <stop offset="1" stop-color="#080808"/>
    </linearGradient>
    <linearGradient id="linear-gradient-2" x1="0" y1="1280" x2="2560" y2="1280" gradientUnits="userSpaceOnUse">
      <stop offset="0" stop-color="#5e5e5e"/>
      <stop offset="1" stop-color="#363436"/>
    </linearGradient>
  </defs>
  <path class="cls-2" d="M2150.4,2099.2h-51.2v-51.2h51.2v51.2ZM2252.8,2048h-51.2v51.2h51.2v-51.2ZM2355.2,2048h-51.2v51.2h51.2v-51.2ZM2457.6,2048h-51.2v51.2h51.2v-51.2ZM2560,2048h-51.2v51.2h51.2v-51.2ZM2099.2,2099.2h-51.2v51.2h51.2v-51.2ZM2201.6,2099.2h-51.2v51.2h51.2v-51.2ZM2304,2099.2h-51.2v51.2h51.2v-51.2ZM2406.4,2099.2h-51.2v51.2h51.2v-51.2ZM2508.8,2099.2h-51.2v51.2h51.2v-51.2ZM2150.4,2150.4h-51.2v51.2h51.2v-51.2ZM2252.8,2150.4h-51.2v51.2h51.2v-51.2ZM2355.2,2150.4h-51.2v51.2h51.2v-51.2ZM2457.6,2150.4h-51.2v51.2h51.2v-51.2ZM2560,2150.4h-51.2v51.2h51.2v-51.2ZM2099.2,2201.6h-51.2v51.2h51.2v-51.2ZM2201.6,2201.6h-51.2v51.2h51.2v-51.2ZM2304,2201.6h-51.2v51.2h51.2v-51.2ZM2406.4,2201.6h-51.2v51.2h51.2v-51.2ZM2508.8,2201.6h-51.2v51.2h51.2v-51.2ZM2150.4,2252.8h-51.2v51.2h51.2v-51.2ZM2252.8,2252.8h-51.2v51.2h51.2v-51.2ZM2355.2,2252.8h-51.2v51.2h51.2v-51.2ZM2457.6,2252.8h-51.2v51.2h51.2v-51.2ZM2560,2252.8h-51.2v51.2h51.2v-51.2ZM2099.2,2304h-51.2v51.2h51.2v-51.2ZM2201.6,2304h-51.2v51.2h51.2v-51.2ZM2304,2304h-51.2v51.2h51.2v-51.2ZM2406.4,2304h-51.2v51.2h51.2v-51.2ZM2508.8,2304h-51.2v51.2h51.2v-51.2ZM2150.4,2355.2h-51.2v51.2h51.2v-51.2ZM2252.8,2355.2h-51.2v51.2h51.2v-51.2ZM2355.2,2355.2h-51.2v51.2h51.2v-51.2ZM2457.6,2355.2h-51.2v51.2h51.2v-51.2ZM2560,2355.2h-51.2v51.2h51.2v-51.2ZM2099.2,2406.4h-51.2v51.2h51.2v-51.2ZM2201.6,2406.4h-51.2v51.2h51.2v-51.2ZM2304,2406.4h-51.2v51.2h51.2v-51.2ZM2406.4,2406.4h-51.2v51.2h51.2v-51.2ZM2508.8,2406.4h-51.2v51.2h51.2v-51.2ZM2150.4,2457.6h-51.2v51.2h51.2v-51.2ZM2252.8,2457.6h-51.2v51.2h51.2v-51.2ZM2355.2,2457.6h-51.2v51.2h51.2v-51.2ZM2457.6,2457.6h-51.2v51.2h51.2v-51.2ZM2560,2457.6h-51.2v51.2h51.2v-51.2ZM2099.2,2508.8h-51.2v51.2h51.2v-51.2ZM2201.6,2508.8h-51.2v51.2h51.2v-51.2ZM2304,2508.8h-51.2v51.2h51.2v-51.2ZM2406.4,2508.8h-51.2v51.2h51.2v-51.2ZM2508.8,2508.8h-51.2v51.2h51.2v-51.2ZM1638.4,2099.2h-51.2v-51.2h51.2v51.2ZM1740.8,2048h-51.2v51.2h51.2v-51.2ZM1843.2,2048h-51.2v51.2h51.2v-51.2ZM1945.6,2048h-51.2v51.2h51.2v-51.2ZM2048,2048h-51.2v51.2h51.2v-51.2ZM1587.2,2099.2h-51.2v51.2h51.2v-51.2ZM1689.6,2099.2h-51.2v51.2h51.2v-51.2ZM1792,2099.2h-51.2v51.2h51.2v-51.2ZM1894.4,2099.2h-51.2v51.2h51.2v-51.2ZM1996.8,2099.2h-51.2v51.2h51.2v-51.2ZM1638.4,2150.4h-51.2v51.2h51.2v-51.2ZM1740.8,2150.4h-51.2v51.2h51.2v-51.2ZM1843.2,2150.4h-51.2v51.2h51.2v-51.2ZM1945.6,2150.4h-51.2v51.2h51.2v-51.2ZM2048,2150.4h-51.2v51.2h51.2v-51.2ZM1587.2,2201.6h-51.2v51.2h51.2v-51.2ZM1689.6,2201.6h-51.2v51.2h51.2v-51.2ZM1792,2201.6h-51.2v51.2h51.2v-51.2ZM1894.4,2201.6h-51.2v51.2h51.2v-51.2ZM1996.8,2201.6h-51.2v51.2h51.2v-51.2ZM1638.4,2252.8h-51.2v51.2h51.2v-51.2ZM1740.8,2252.8h-51.2v51.2h51.2v-51.2ZM1843.2,2252.8h-51.2v51.2h51.2v-51.2ZM1945.6,2252.8h-51.2v51.2h51.2v-51.2ZM2048,2252.8h-51.2v51.2h51.2v-51.2ZM1587.2,2304h-51.2v51.2h51.2v-51.2ZM1689.6,2304h-51.2v51.2h51.2v-51.2ZM1792,2304h-51.2v51.2h51.2v-51.2ZM1894.4,2304h-51.2v51.2h51.2v-51.2ZM1996.8,2304h-51.2v51.2h51.2v-51.2ZM1638.4,2355.2h-51.2v51.2h51.2v-51.2ZM1740.8,2355.2h-51.2v51.2h51.2v-51.2ZM1843.2,2355.2h-51.2v51.2h51.2v-51.2ZM1945.6,2355.2h-51.2v51.2h51.2v-51.2ZM2048,2355.2h-51.2v51.2h51.2v-51.2ZM1587.2,2406.4h-51.2v51.2h51.2v-51.2ZM1689.6,2406.4h-51.2v51.2h51.2v-51.2ZM1792,2406.4h-51.2v51.2h51.2v-51.2ZM1894.4,2406.4h-51.2v51.2h51.2v-51.2ZM1996.8,2406.4h-51.2v51.2h51.2v-51.2ZM1638.4,2457.6h-51.2v51.2h51.2v-51.2ZM1740.8,2457.6h-51.2v51.2h51.2v-51.2ZM1843.2,2457.6h-51.2v51.2h51.2v-51.2ZM1945.6,2457.6h-51.2v51.2h51.2v-51.2ZM2048,2457.6h-51.2v51.2h51.2v-51.2ZM1587.2,2508.8h-51.2v51.2h51.2v-51.2ZM1689.6,2508.8h-51.2v51.2h51.2v-51.2ZM1792,2508.8h-51.2v51.2h51.2v-51.2ZM1894.4,2508.8h-51.2v51.2h51.2v-51.2ZM1996.8,2508.8h-51.2v51.2h51.2v-51.2ZM1126.4,2099.2h-51.2v-51.2h51.2v51.2ZM1228.8,2048h-51.2v51.2h51.2v-51.2ZM1331.2,2048h-51.2v51.2h51.2v-51.2ZM1433.6,2048h-51.2v51.2h51.2v-51.2ZM1536,2048h-51.2v51.2h51.2v-51.2ZM1075.2,2099.2h-51.2v51.2h51.2v-51.2ZM1177.6,2099.2h-51.2v51.2h51.2v-51.2ZM1280,2099.2h-51.2v51.2h51.2v-51.2ZM1382.4,2099.2h-51.2v51.2h51.2v-51.2ZM1484.8,2099.2h-51.2v51.2h51.2v-51.2ZM1126.4,2150.4h-51.2v51.2h51.2v-51.2ZM1228.8,2150.4h-51.2v51.2h51.2v-51.2ZM1331.2,2150.4h-51.2v51.2h51.2v-51.2ZM1433.6,2150.4h-51.2v51.2h51.2v-51.2ZM1536,2150.4h-51.2v51.2h51.2v-51.2ZM1075.2,2201.6h-51.2v51.2h51.2v-51.2ZM1177.6,2201.6h-51.2v51.2h51.2v-51.2ZM1280,2201.6h-51.2v51.2h51.2v-51.2ZM1382.4,2201.6h-51.2v51.2h51.2v-51.2ZM1484.8,2201.6h-51.2v51.2h51.2v-51.2ZM1126.4,2252.8h-51.2v51.2h51.2v-51.2ZM1228.8,2252.8h-51.2v51.2h51.2v-51.2ZM1331.2,2252.8h-51.2v51.2h51.2v-51.2ZM1433.6,2252.8h-51.2v51.2h51.2v-51.2ZM1536,2252.8h-51.2v51.2h51.2v-51.2ZM1075.2,2304h-51.2v51.2h51.2v-51.2ZM1177.6,2304h-51.2v51.2h51.2v-51.2ZM1280,2304h-51.2v51.2h51.2v-51.2ZM1382.4,2304h-51.2v51.2h51.2v-51.2ZM1484.8,2304h-51.2v51.2h51.2v-51.2ZM1126.4,2355.2h-51.2v51.2h51.2v-51.2ZM1228.8,2355.2h-51.2v51.2h51.2v-51.2ZM1331.2,2355.2h-51.2v51.2h51.2v-51.2ZM1433.6,2355.2h-51.2v51.2h51.2v-51.2ZM1536,2355.2h-51.2v51.2h51.2v-51.2ZM1075.2,2406.4h-51.2v51.2h51.2v-51.2ZM1177.6,2406.4h-51.2v51.2h51.2v-51.2ZM1280,2406.4h-51.2v51.2h51.2v-51.2ZM1382.4,2406.4h-51.2v51.2h51.2v-51.2ZM1484.8,2406.4h-51.2v51.2h51.2v-51.2ZM1126.4,2457.6h-51.2v51.2h51.2v-51.2ZM1228.8,2457.6h-51.2v51.2h51.2v-51.2ZM1331.2,2457.6h-51.2v51.2h51.2v-51.2ZM1433.6,2457.6h-51.2v51.2h51.2v-51.2ZM1536,2457.6h-51.2v51.2h51.2v-51.2ZM1075.2,2508.8h-51.2v51.2h51.2v-51.2ZM1177.6,2508.8h-51.2v51.2h51.2v-51.2ZM1280,2508.8h-51.2v51.2h51.2v-51.2ZM1382.4,2508.8h-51.2v51.2h51.2v-51.2ZM1484.8,2508.8h-51.2v51.2h51.2v-51.2ZM614.4,2099.2h-51.2v-51.2h51.2v51.2ZM716.8,2048h-51.2v51.2h51.2v-51.2ZM819.2,2048h-51.2v51.2h51.2v-51.2ZM921.6,2048h-51.2v51.2h51.2v-51.2ZM1024,2048h-51.2v51.2h51.2v-51.2ZM563.2,2099.2h-51.2v51.2h51.2v-51.2ZM665.6,2099.2h-51.2v51.2h51.2v-51.2ZM768,2099.2h-51.2v51.2h51.2v-51.2ZM870.4,2099.2h-51.2v51.2h51.2v-51.2ZM972.8,2099.2h-51.2v51.2h51.2v-51.2ZM614.4,2150.4h-51.2v51.2h51.2v-51.2ZM716.8,2150.4h-51.2v51.2h51.2v-51.2ZM819.2,2150.4h-51.2v51.2h51.2v-51.2ZM921.6,2150.4h-51.2v51.2h51.2v-51.2ZM1024,2150.4h-51.2v51.2h51.2v-51.2ZM563.2,2201.6h-51.2v51.2h51.2v-51.2ZM665.6,2201.6h-51.2v51.2h51.2v-51.2ZM768,2201.6h-51.2v51.2h51.2v-51.2ZM870.4,2201.6h-51.2v51.2h51.2v-51.2ZM972.8,2201.6h-51.2v51.2h51.2v-51.2ZM614.4,2252.8h-51.2v51.2h51.2v-51.2ZM716.8,2252.8h-51.2v51.2h51.2v-51.2ZM819.2,2252.8h-51.2v51.2h51.2v-51.2ZM921.6,2252.8h-51.2v51.2h51.2v-51.2ZM1024,2252.8h-51.2v51.2h51.2v-51.2ZM563.2,2304h-51.2v51.2h51.2v-51.2ZM665.6,2304h-51.2v51.2h51.2v-51.2ZM768,2304h-51.2v51.2h51.2v-51.2ZM870.4,2304h-51.2v51.2h51.2v-51.2ZM972.8,2304h-51.2v51.2h51.2v-51.2ZM614.4,2355.2h-51.2v51.2h51.2v-51.2ZM716.8,2355.2h-51.2v51.2h51.2v-51.2ZM819.2,2355.2h-51.2v51.2h51.2v-51.2ZM921.6,2355.2h-51.2v51.2h51.2v-51.2ZM1024,2355.2h-51.2v51.2h51.2v-51.2ZM563.2,2406.4h-51.2v51.2h51.2v-51.2ZM665.6,2406.4h-51.2v51.2h51.2v-51.2ZM768,2406.4h-51.2v51.2h51.2v-51.2ZM870.4,2406.4h-51.2v51.2h51.2v-51.2ZM972.8,2406.4h-51.2v51.2h51.2v-51.2ZM614.4,2457.6h-51.2v51.2h51.2v-51.2ZM716.8,2457.6h-51.2v51.2h51.2v-51.2ZM819.2,2457.6h-51.2v51.2h51.2v-51.2ZM921.6,2457.6h-51.2v51.2h51.2v-51.2ZM1024,2457.6h-51.2v51.2h51.2v-51.2ZM563.2,2508.8h-51.2v51.2h51.2v-51.2ZM665.6,2508.8h-51.2v51.2h51.2v-51.2ZM768,2508.8h-51.2v51.2h51.2v-51.2ZM870.4,2508.8h-51.2v51.2h51.2v-51.2ZM972.8,2508.8h-51.2v51.2h51.2v-51.2ZM102.4,2099.2h-51.2v-51.2h51.2v51.2ZM204.8,2048h-51.2v51.2h51.2v-51.2ZM307.2,2048h-51.2v51.2h51.2v-51.2ZM409.6,2048h-51.2v51.2h51.2v-51.2ZM512,2048h-51.2v51.2h51.2v-51.2ZM51.2,2099.2H0v51.2h51.2v-51.2ZM153.6,2099.2h-51.2v51.2h51.2v-51.2ZM256,2099.2h-51.2v51.2h51.2v-51.2ZM358.4,2099.2h-51.2v51.2h51.2v-51.2ZM460.8,2099.2h-51.2v51.2h51.2v-51.2ZM102.4,2150.4h-51.2v51.2h51.2v-51.2ZM204.8,2150.4h-51.2v51.2h51.2v-51.2ZM307.2,2150.4h-51.2v51.2h51.2v-51.2ZM409.6,2150.4h-51.2v51.2h51.2v-51.2ZM512,2150.4h-51.2v51.2h51.2v-51.2ZM51.2,2201.6H0v51.2h51.2v-51.2ZM153.6,2201.6h-51.2v51.2h51.2v-51.2ZM256,2201.6h-51.2v51.2h51.2v-51.2ZM358.4,2201.6h-51.2v51.2h51.2v-51.2ZM460.8,2201.6h-51.2v51.2h51.2v-51.2ZM102.4,2252.8h-51.2v51.2h51.2v-51.2ZM204.8,2252.8h-51.2v51.2h51.2v-51.2ZM307.2,2252.8h-51.2v51.2h51.2v-51.2ZM409.6,2252.8h-51.2v51.2h51.2v-51.2ZM512,2252.8h-51.2v51.2h51.2v-51.2ZM51.2,2304H0v51.2h51.2v-51.2ZM153.6,2304h-51.2v51.2h51.2v-51.2ZM256,2304h-51.2v51.2h51.2v-51.2ZM358.4,2304h-51.2v51.2h51.2v-51.2ZM460.8,2304h-51.2v51.2h51.2v-51.2ZM102.4,2355.2h-51.2v51.2h51.2v-51.2ZM204.8,2355.2h-51.2v51.2h51.2v-51.2ZM307.2,2355.2h-51.2v51.2h51.2v-51.2ZM409.6,2355.2h-51.2v51.2h51.2v-51.2ZM512,2355.2h-51.2v51.2h51.2v-51.2ZM51.2,2406.4H0v51.2h51.2v-51.2ZM153.6,2406.4h-51.2v51.2h51.2v-51.2ZM256,2406.4h-51.2v51.2h51.2v-51.2ZM358.4,2406.4h-51.2v51.2h51.2v-51.2ZM460.8,2406.4h-51.2v51.2h51.2v-51.2ZM102.4,2457.6h-51.2v51.2h51.2v-51.2ZM204.8,2457.6h-51.2v51.2h51.2v-51.2ZM307.2,2457.6h-51.2v51.2h51.2v-51.2ZM409.6,2457.6h-51.2v51.2h51.2v-51.2ZM512,2457.6h-51.2v51.2h51.2v-51.2ZM51.2,2508.8H0v51.2h51.2v-51.2ZM153.6,2508.8h-51.2v51.2h51.2v-51.2ZM256,2508.8h-51.2v51.2h51.2v-51.2ZM358.4,2508.8h-51.2v51.2h51.2v-51.2ZM460.8,2508.8h-51.2v51.2h51.2v-51.2ZM2150.4,1587.2h-51.2v-51.2h51.2v51.2ZM2252.8,1536h-51.2v51.2h51.2v-51.2ZM2355.2,1536h-51.2v51.2h51.2v-51.2ZM2457.6,1536h-51.2v51.2h51.2v-51.2ZM2560,1536h-51.2v51.2h51.2v-51.2ZM2099.2,1587.2h-51.2v51.2h51.2v-51.2ZM2201.6,1587.2h-51.2v51.2h51.2v-51.2ZM2304,1587.2h-51.2v51.2h51.2v-51.2ZM2406.4,1587.2h-51.2v51.2h51.2v-51.2ZM2508.8,1587.2h-51.2v51.2h51.2v-51.2ZM2150.4,1638.4h-51.2v51.2h51.2v-51.2ZM2252.8,1638.4h-51.2v51.2h51.2v-51.2ZM2355.2,1638.4h-51.2v51.2h51.2v-51.2ZM2457.6,1638.4h-51.2v51.2h51.2v-51.2ZM2560,1638.4h-51.2v51.2h51.2v-51.2ZM2099.2,1689.6h-51.2v51.2h51.2v-51.2ZM2201.6,1689.6h-51.2v51.2h51.2v-51.2ZM2304,1689.6h-51.2v51.2h51.2v-51.2ZM2406.4,1689.6h-51.2v51.2h51.2v-51.2ZM2508.8,1689.6h-51.2v51.2h51.2v-51.2ZM2150.4,1740.8h-51.2v51.2h51.2v-51.2ZM2252.8,1740.8h-51.2v51.2h51.2v-51.2ZM2355.2,1740.8h-51.2v51.2h51.2v-51.2ZM2457.6,1740.8h-51.2v51.2h51.2v-51.2ZM2560,1740.8h-51.2v51.2h51.2v-51.2ZM2099.2,1792h-51.2v51.2h51.2v-51.2ZM2201.6,1792h-51.2v51.2h51.2v-51.2ZM2304,1792h-51.2v51.2h51.2v-51.2ZM2406.4,1792h-51.2v51.2h51.2v-51.2ZM2508.8,1792h-51.2v51.2h51.2v-51.2ZM2150.4,1843.2h-51.2v51.2h51.2v-51.2ZM2252.8,1843.2h-51.2v51.2h51.2v-51.2ZM2355.2,1843.2h-51.2v51.2h51.2v-51.2ZM2457.6,1843.2h-51.2v51.2h51.2v-51.2ZM2560,1843.2h-51.2v51.2h51.2v-51.2ZM2099.2,1894.4h-51.2v51.2h51.2v-51.2ZM2201.6,1894.4h-51.2v51.2h51.2v-51.2ZM2304,1894.4h-51.2v51.2h51.2v-51.2ZM2406.4,1894.4h-51.2v51.2h51.2v-51.2ZM2508.8,1894.4h-51.2v51.2h51.2v-51.2ZM2150.4,1945.6h-51.2v51.2h51.2v-51.2ZM2252.8,1945.6h-51.2v51.2h51.2v-51.2ZM2355.2,1945.6h-51.2v51.2h51.2v-51.2ZM2457.6,1945.6h-51.2v51.2h51.2v-51.2ZM2560,1945.6h-51.2v51.2h51.2v-51.2ZM2099.2,1996.8h-51.2v51.2h51.2v-51.2ZM2201.6,1996.8h-51.2v51.2h51.2v-51.2ZM2304,1996.8h-51.2v51.2h51.2v-51.2ZM2406.4,1996.8h-51.2v51.2h51.2v-51.2ZM2508.8,1996.8h-51.2v51.2h51.2v-51.2ZM1638.4,1587.2h-51.2v-51.2h51.2v51.2ZM1740.8,1536h-51.2v51.2h51.2v-51.2ZM1843.2,1536h-51.2v51.2h51.2v-51.2ZM1945.6,1536h-51.2v51.2h51.2v-51.2ZM2048,1536h-51.2v51.2h51.2v-51.2ZM1587.2,1587.2h-51.2v51.2h51.2v-51.2ZM1689.6,1587.2h-51.2v51.2h51.2v-51.2ZM1792,1587.2h-51.2v51.2h51.2v-51.2ZM1894.4,1587.2h-51.2v51.2h51.2v-51.2ZM1996.8,1587.2h-51.2v51.2h51.2v-51.2ZM1638.4,1638.4h-51.2v51.2h51.2v-51.2ZM1740.8,1638.4h-51.2v51.2h51.2v-51.2ZM1843.2,1638.4h-51.2v51.2h51.2v-51.2ZM1945.6,1638.4h-51.2v51.2h51.2v-51.2ZM2048,1638.4h-51.2v51.2h51.2v-51.2ZM1587.2,1689.6h-51.2v51.2h51.2v-51.2ZM1689.6,1689.6h-51.2v51.2h51.2v-51.2ZM1792,1689.6h-51.2v51.2h51.2v-51.2ZM1894.4,1689.6h-51.2v51.2h51.2v-51.2ZM1996.8,1689.6h-51.2v51.2h51.2v-51.2ZM1638.4,1740.8h-51.2v51.2h51.2v-51.2ZM1740.8,1740.8h-51.2v51.2h51.2v-51.2ZM1843.2,1740.8h-51.2v51.2h51.2v-51.2ZM1945.6,1740.8h-51.2v51.2h51.2v-51.2ZM2048,1740.8h-51.2v51.2h51.2v-51.2ZM1587.2,1792h-51.2v51.2h51.2v-51.2ZM1689.6,1792h-51.2v51.2h51.2v-51.2ZM1792,1792h-51.2v51.2h51.2v-51.2ZM1894.4,1792h-51.2v51.2h51.2v-51.2ZM1996.8,1792h-51.2v51.2h51.2v-51.2ZM1638.4,1843.2h-51.2v51.2h51.2v-51.2ZM1740.8,1843.2h-51.2v51.2h51.2v-51.2ZM1843.2,1843.2h-51.2v51.2h51.2v-51.2ZM1945.6,1843.2h-51.2v51.2h51.2v-51.2ZM2048,1843.2h-51.2v51.2h51.2v-51.2ZM1587.2,1894.4h-51.2v51.2h51.2v-51.2ZM1689.6,1894.4h-51.2v51.2h51.2v-51.2ZM1792,1894.4h-51.2v51.2h51.2v-51.2ZM1894.4,1894.4h-51.2v51.2h51.2v-51.2ZM1996.8,1894.4h-51.2v51.2h51.2v-51.2ZM1638.4,1945.6h-51.2v51.2h51.2v-51.2ZM1740.8,1945.6h-51.2v51.2h51.2v-51.2ZM1843.2,1945.6h-51.2v51.2h51.2v-51.2ZM1945.6,1945.6h-51.2v51.2h51.2v-51.2ZM2048,1945.6h-51.2v51.2h51.2v-51.2ZM1587.2,1996.8h-51.2v51.2h51.2v-51.2ZM1689.6,1996.8h-51.2v51.2h51.2v-51.2ZM1792,1996.8h-51.2v51.2h51.2v-51.2ZM1894.4,1996.8h-51.2v51.2h51.2v-51.2ZM1996.8,1996.8h-51.2v51.2h51.2v-51.2ZM1126.4,1587.2h-51.2v-51.2h51.2v51.2ZM1228.8,1536h-51.2v51.2h51.2v-51.2ZM1331.2,1536h-51.2v51.2h51.2v-51.2ZM1433.6,1536h-51.2v51.2h51.2v-51.2ZM1536,1536h-51.2v51.2h51.2v-51.2ZM1075.2,1587.2h-51.2v51.2h51.2v-51.2ZM1177.6,1587.2h-51.2v51.2h51.2v-51.2ZM1280,1587.2h-51.2v51.2h51.2v-51.2ZM1382.4,1587.2h-51.2v51.2h51.2v-51.2ZM1484.8,1587.2h-51.2v51.2h51.2v-51.2ZM1126.4,1638.4h-51.2v51.2h51.2v-51.2ZM1228.8,1638.4h-51.2v51.2h51.2v-51.2ZM1331.2,1638.4h-51.2v51.2h51.2v-51.2ZM1433.6,1638.4h-51.2v51.2h51.2v-51.2ZM1536,1638.4h-51.2v51.2h51.2v-51.2ZM1075.2,1689.6h-51.2v51.2h51.2v-51.2ZM1177.6,1689.6h-51.2v51.2h51.2v-51.2ZM1280,1689.6h-51.2v51.2h51.2v-51.2ZM1382.4,1689.6h-51.2v51.2h51.2v-51.2ZM1484.8,1689.6h-51.2v51.2h51.2v-51.2ZM1126.4,1740.8h-51.2v51.2h51.2v-51.2ZM1228.8,1740.8h-51.2v51.2h51.2v-51.2ZM1331.2,1740.8h-51.2v51.2h51.2v-51.2ZM1433.6,1740.8h-51.2v51.2h51.2v-51.2ZM1536,1740.8h-51.2v51.2h51.2v-51.2ZM1075.2,1792h-51.2v51.2h51.2v-51.2ZM1177.6,1792h-51.2v51.2h51.2v-51.2ZM1280,1792h-51.2v51.2h51.2v-51.2ZM1382.4,1792h-51.2v51.2h51.2v-51.2ZM1484.8,1792h-51.2v51.2h51.2v-51.2ZM1126.4,1843.2h-51.2v51.2h51.2v-51.2ZM1228.8,1843.2h-51.2v51.2h51.2v-51.2ZM1331.2,1843.2h-51.2v51.2h51.2v-51.2ZM1433.6,1843.2h-51.2v51.2h51.2v-51.2ZM1536,1843.2h-51.2v51.2h51.2v-51.2ZM1075.2,1894.4h-51.2v51.2h51.2v-51.2ZM1177.6,1894.4h-51.2v51.2h51.2v-51.2ZM1280,1894.4h-51.2v51.2h51.2v-51.2ZM1382.4,1894.4h-51.2v51.2h51.2v-51.2ZM1484.8,1894.4h-51.2v51.2h51.2v-51.2ZM1126.4,1945.6h-51.2v51.2h51.2v-51.2ZM1228.8,1945.6h-51.2v51.2h51.2v-51.2ZM1331.2,1945.6h-51.2v51.2h51.2v-51.2ZM1433.6,1945.6h-51.2v51.2h51.2v-51.2ZM1536,1945.6h-51.2v51.2h51.2v-51.2ZM1075.2,1996.8h-51.2v51.2h51.2v-51.2ZM1177.6,1996.8h-51.2v51.2h51.2v-51.2ZM1280,1996.8h-51.2v51.2h51.2v-51.2ZM1382.4,1996.8h-51.2v51.2h51.2v-51.2ZM1484.8,1996.8h-51.2v51.2h51.2v-51.2ZM614.4,1587.2h-51.2v-51.2h51.2v51.2ZM716.8,1536h-51.2v51.2h51.2v-51.2ZM819.2,1536h-51.2v51.2h51.2v-51.2ZM921.6,1536h-51.2v51.2h51.2v-51.2ZM1024,1536h-51.2v51.2h51.2v-51.2ZM563.2,1587.2h-51.2v51.2h51.2v-51.2ZM665.6,1587.2h-51.2v51.2h51.2v-51.2ZM768,1587.2h-51.2v51.2h51.2v-51.2ZM870.4,1587.2h-51.2v51.2h51.2v-51.2ZM972.8,1587.2h-51.2v51.2h51.2v-51.2ZM614.4,1638.4h-51.2v51.2h51.2v-51.2ZM716.8,1638.4h-51.2v51.2h51.2v-51.2ZM819.2,1638.4h-51.2v51.2h51.2v-51.2ZM921.6,1638.4h-51.2v51.2h51.2v-51.2ZM1024,1638.4h-51.2v51.2h51.2v-51.2ZM563.2,1689.6h-51.2v51.2h51.2v-51.2ZM665.6,1689.6h-51.2v51.2h51.2v-51.2ZM768,1689.6h-51.2v51.2h51.2v-51.2ZM870.4,1689.6h-51.2v51.2h51.2v-51.2ZM972.8,1689.6h-51.2v51.2h51.2v-51.2ZM614.4,1740.8h-51.2v51.2h51.2v-51.2ZM716.8,1740.8h-51.2v51.2h51.2v-51.2ZM819.2,1740.8h-51.2v51.2h51.2v-51.2ZM921.6,1740.8h-51.2v51.2h51.2v-51.2ZM1024,1740.8h-51.2v51.2h51.2v-51.2ZM563.2,1792h-51.2v51.2h51.2v-51.2ZM665.6,1792h-51.2v51.2h51.2v-51.2ZM768,1792h-51.2v51.2h51.2v-51.2ZM870.4,1792h-51.2v51.2h51.2v-51.2ZM972.8,1792h-51.2v51.2h51.2v-51.2ZM614.4,1843.2h-51.2v51.2h51.2v-51.2ZM716.8,1843.2h-51.2v51.2h51.2v-51.2ZM819.2,1843.2h-51.2v51.2h51.2v-51.2ZM921.6,1843.2h-51.2v51.2h51.2v-51.2ZM1024,1843.2h-51.2v51.2h51.2v-51.2ZM563.2,1894.4h-51.2v51.2h51.2v-51.2ZM665.6,1894.4h-51.2v51.2h51.2v-51.2ZM768,1894.4h-51.2v51.2h51.2v-51.2ZM870.4,1894.4h-51.2v51.2h51.2v-51.2ZM972.8,1894.4h-51.2v51.2h51.2v-51.2ZM614.4,1945.6h-51.2v51.2h51.2v-51.2ZM716.8,1945.6h-51.2v51.2h51.2v-51.2ZM819.2,1945.6h-51.2v51.2h51.2v-51.2ZM921.6,1945.6h-51.2v51.2h51.2v-51.2ZM1024,1945.6h-51.2v51.2h51.2v-51.2ZM563.2,1996.8h-51.2v51.2h51.2v-51.2ZM665.6,1996.8h-51.2v51.2h51.2v-51.2ZM768,1996.8h-51.2v51.2h51.2v-51.2ZM870.4,1996.8h-51.2v51.2h51.2v-51.2ZM972.8,1996.8h-51.2v51.2h51.2v-51.2ZM102.4,1587.2h-51.2v-51.2h51.2v51.2ZM204.8,1536h-51.2v51.2h51.2v-51.2ZM307.2,1536h-51.2v51.2h51.2v-51.2ZM409.6,1536h-51.2v51.2h51.2v-51.2ZM512,1536h-51.2v51.2h51.2v-51.2ZM51.2,1587.2H0v51.2h51.2v-51.2ZM153.6,1587.2h-51.2v51.2h51.2v-51.2ZM256,1587.2h-51.2v51.2h51.2v-51.2ZM358.4,1587.2h-51.2v51.2h51.2v-51.2ZM460.8,1587.2h-51.2v51.2h51.2v-51.2ZM102.4,1638.4h-51.2v51.2h51.2v-51.2ZM204.8,1638.4h-51.2v51.2h51.2v-51.2ZM307.2,1638.4h-51.2v51.2h51.2v-51.2ZM409.6,1638.4h-51.2v51.2h51.2v-51.2ZM512,1638.4h-51.2v51.2h51.2v-51.2ZM51.2,1689.6H0v51.2h51.2v-51.2ZM153.6,1689.6h-51.2v51.2h51.2v-51.2ZM256,1689.6h-51.2v51.2h51.2v-51.2ZM358.4,1689.6h-51.2v51.2h51.2v-51.2ZM460.8,1689.6h-51.2v51.2h51.2v-51.2ZM102.4,1740.8h-51.2v51.2h51.2v-51.2ZM204.8,1740.8h-51.2v51.2h51.2v-51.2ZM307.2,1740.8h-51.2v51.2h51.2v-51.2ZM409.6,1740.8h-51.2v51.2h51.2v-51.2ZM512,1740.8h-51.2v51.2h51.2v-51.2ZM51.2,1792H0v51.2h51.2v-51.2ZM153.6,1792h-51.2v51.2h51.2v-51.2ZM256,1792h-51.2v51.2h51.2v-51.2ZM358.4,1792h-51.2v51.2h51.2v-51.2ZM460.8,1792h-51.2v51.2h51.2v-51.2ZM102.4,1843.2h-51.2v51.2h51.2v-51.2ZM204.8,1843.2h-51.2v51.2h51.2v-51.2ZM307.2,1843.2h-51.2v51.2h51.2v-51.2ZM409.6,1843.2h-51.2v51.2h51.2v-51.2ZM512,1843.2h-51.2v51.2h51.2v-51.2ZM51.2,1894.4H0v51.2h51.2v-51.2ZM153.6,1894.4h-51.2v51.2h51.2v-51.2ZM256,1894.4h-51.2v51.2h51.2v-51.2ZM358.4,1894.4h-51.2v51.2h51.2v-51.2ZM460.8,1894.4h-51.2v51.2h51.2v-51.2ZM102.4,1945.6h-51.2v51.2h51.2v-51.2ZM204.8,1945.6h-51.2v51.2h51.2v-51.2ZM307.2,1945.6h-51.2v51.2h51.2v-51.2ZM409.6,1945.6h-51.2v51.2h51.2v-51.2ZM512,1945.6h-51.2v51.2h51.2v-51.2ZM51.2,1996.8H0v51.2h51.2v-51.2ZM153.6,1996.8h-51.2v51.2h51.2v-51.2ZM256,1996.8h-51.2v51.2h51.2v-51.2ZM358.4,1996.8h-51.2v51.2h51.2v-51.2ZM460.8,1996.8h-51.2v51.2h51.2v-51.2ZM2150.4,1075.2h-51.2v-51.2h51.2v51.2ZM2252.8,1024h-51.2v51.2h51.2v-51.2ZM2355.2,1024h-51.2v51.2h51.2v-51.2ZM2457.6,1024h-51.2v51.2h51.2v-51.2ZM2560,1024h-51.2v51.2h51.2v-51.2ZM2099.2,1075.2h-51.2v51.2h51.2v-51.2ZM2201.6,1075.2h-51.2v51.2h51.2v-51.2ZM2304,1075.2h-51.2v51.2h51.2v-51.2ZM2406.4,1075.2h-51.2v51.2h51.2v-51.2ZM2508.8,1075.2h-51.2v51.2h51.2v-51.2ZM2150.4,1126.4h-51.2v51.2h51.2v-51.2ZM2252.8,1126.4h-51.2v51.2h51.2v-51.2ZM2355.2,1126.4h-51.2v51.2h51.2v-51.2ZM2457.6,1126.4h-51.2v51.2h51.2v-51.2ZM2560,1126.4h-51.2v51.2h51.2v-51.2ZM2099.2,1177.6h-51.2v51.2h51.2v-51.2ZM2201.6,1177.6h-51.2v51.2h51.2v-51.2ZM2304,1177.6h-51.2v51.2h51.2v-51.2ZM2406.4,1177.6h-51.2v51.2h51.2v-51.2ZM2508.8,1177.6h-51.2v51.2h51.2v-51.2ZM2150.4,1228.8h-51.2v51.2h51.2v-51.2ZM2252.8,1228.8h-51.2v51.2h51.2v-51.2ZM2355.2,1228.8h-51.2v51.2h51.2v-51.2ZM2457.6,1228.8h-51.2v51.2h51.2v-51.2ZM2560,1228.8h-51.2v51.2h51.2v-51.2ZM2099.2,1280h-51.2v51.2h51.2v-51.2ZM2201.6,1280h-51.2v51.2h51.2v-51.2ZM2304,1280h-51.2v51.2h51.2v-51.2ZM2406.4,1280h-51.2v51.2h51.2v-51.2ZM2508.8,1280h-51.2v51.2h51.2v-51.2ZM2150.4,1331.2h-51.2v51.2h51.2v-51.2ZM2252.8,1331.2h-51.2v51.2h51.2v-51.2ZM2355.2,1331.2h-51.2v51.2h51.2v-51.2ZM2457.6,1331.2h-51.2v51.2h51.2v-51.2ZM2560,1331.2h-51.2v51.2h51.2v-51.2ZM2099.2,1382.4h-51.2v51.2h51.2v-51.2ZM2201.6,1382.4h-51.2v51.2h51.2v-51.2ZM2304,1382.4h-51.2v51.2h51.2v-51.2ZM2406.4,1382.4h-51.2v51.2h51.2v-51.2ZM2508.8,1382.4h-51.2v51.2h51.2v-51.2ZM2150.4,1433.6h-51.2v51.2h51.2v-51.2ZM2252.8,1433.6h-51.2v51.2h51.2v-51.2ZM2355.2,1433.6h-51.2v51.2h51.2v-51.2ZM2457.6,1433.6h-51.2v51.2h51.2v-51.2ZM2560,1433.6h-51.2v51.2h51.2v-51.2ZM2099.2,1484.8h-51.2v51.2h51.2v-51.2ZM2201.6,1484.8h-51.2v51.2h51.2v-51.2ZM2304,1484.8h-51.2v51.2h51.2v-51.2ZM2406.4,1484.8h-51.2v51.2h51.2v-51.2ZM2508.8,1484.8h-51.2v51.2h51.2v-51.2ZM1638.4,1075.2h-51.2v-51.2h51.2v51.2ZM1740.8,1024h-51.2v51.2h51.2v-51.2ZM1843.2,1024h-51.2v51.2h51.2v-51.2ZM1945.6,1024h-51.2v51.2h51.2v-51.2ZM2048,1024h-51.2v51.2h51.2v-51.2ZM1587.2,1075.2h-51.2v51.2h51.2v-51.2ZM1689.6,1075.2h-51.2v51.2h51.2v-51.2ZM1792,1075.2h-51.2v51.2h51.2v-51.2ZM1894.4,1075.2h-51.2v51.2h51.2v-51.2ZM1996.8,1075.2h-51.2v51.2h51.2v-51.2ZM1638.4,1126.4h-51.2v51.2h51.2v-51.2ZM1740.8,1126.4h-51.2v51.2h51.2v-51.2ZM1843.2,1126.4h-51.2v51.2h51.2v-51.2ZM1945.6,1126.4h-51.2v51.2h51.2v-51.2ZM2048,1126.4h-51.2v51.2h51.2v-51.2ZM1587.2,1177.6h-51.2v51.2h51.2v-51.2ZM1689.6,1177.6h-51.2v51.2h51.2v-51.2ZM1792,1177.6h-51.2v51.2h51.2v-51.2ZM1894.4,1177.6h-51.2v51.2h51.2v-51.2ZM1996.8,1177.6h-51.2v51.2h51.2v-51.2ZM1638.4,1228.8h-51.2v51.2h51.2v-51.2ZM1740.8,1228.8h-51.2v51.2h51.2v-51.2ZM1843.2,1228.8h-51.2v51.2h51.2v-51.2ZM1945.6,1228.8h-51.2v51.2h51.2v-51.2ZM2048,1228.8h-51.2v51.2h51.2v-51.2ZM1587.2,1280h-51.2v51.2h51.2v-51.2ZM1689.6,1280h-51.2v51.2h51.2v-51.2ZM1792,1280h-51.2v51.2h51.2v-51.2ZM1894.4,1280h-51.2v51.2h51.2v-51.2ZM1996.8,1280h-51.2v51.2h51.2v-51.2ZM1638.4,1331.2h-51.2v51.2h51.2v-51.2ZM1740.8,1331.2h-51.2v51.2h51.2v-51.2ZM1843.2,1331.2h-51.2v51.2h51.2v-51.2ZM1945.6,1331.2h-51.2v51.2h51.2v-51.2ZM2048,1331.2h-51.2v51.2h51.2v-51.2ZM1587.2,1382.4h-51.2v51.2h51.2v-51.2ZM1689.6,1382.4h-51.2v51.2h51.2v-51.2ZM1792,1382.4h-51.2v51.2h51.2v-51.2ZM1894.4,1382.4h-51.2v51.2h51.2v-51.2ZM1996.8,1382.4h-51.2v51.2h51.2v-51.2ZM1638.4,1433.6h-51.2v51.2h51.2v-51.2ZM1740.8,1433.6h-51.2v51.2h51.2v-51.2ZM1843.2,1433.6h-51.2v51.2h51.2v-51.2ZM1945.6,1433.6h-51.2v51.2h51.2v-51.2ZM2048,1433.6h-51.2v51.2h51.2v-51.2ZM1587.2,1484.8h-51.2v51.2h51.2v-51.2ZM1689.6,1484.8h-51.2v51.2h51.2v-51.2ZM1792,1484.8h-51.2v51.2h51.2v-51.2ZM1894.4,1484.8h-51.2v51.2h51.2v-51.2ZM1996.8,1484.8h-51.2v51.2h51.2v-51.2ZM1126.4,1075.2h-51.2v-51.2h51.2v51.2ZM1228.8,1024h-51.2v51.2h51.2v-51.2ZM1331.2,1024h-51.2v51.2h51.2v-51.2ZM1433.6,1024h-51.2v51.2h51.2v-51.2ZM1536,1024h-51.2v51.2h51.2v-51.2ZM1075.2,1075.2h-51.2v51.2h51.2v-51.2ZM1177.6,1075.2h-51.2v51.2h51.2v-51.2ZM1280,1075.2h-51.2v51.2h51.2v-51.2ZM1382.4,1075.2h-51.2v51.2h51.2v-51.2ZM1484.8,1075.2h-51.2v51.2h51.2v-51.2ZM1126.4,1126.4h-51.2v51.2h51.2v-51.2ZM1228.8,1126.4h-51.2v51.2h51.2v-51.2ZM1331.2,1126.4h-51.2v51.2h51.2v-51.2ZM1433.6,1126.4h-51.2v51.2h51.2v-51.2ZM1536,1126.4h-51.2v51.2h51.2v-51.2ZM1075.2,1177.6h-51.2v51.2h51.2v-51.2ZM1177.6,1177.6h-51.2v51.2h51.2v-51.2ZM1280,1177.6h-51.2v51.2h51.2v-51.2ZM1382.4,1177.6h-51.2v51.2h51.2v-51.2ZM1484.8,1177.6h-51.2v51.2h51.2v-51.2ZM1126.4,1228.8h-51.2v51.2h51.2v-51.2ZM1228.8,1228.8h-51.2v51.2h51.2v-51.2ZM1331.2,1228.8h-51.2v51.2h51.2v-51.2ZM1433.6,1228.8h-51.2v51.2h51.2v-51.2ZM1536,1228.8h-51.2v51.2h51.2v-51.2ZM1075.2,1280h-51.2v51.2h51.2v-51.2ZM1177.6,1280h-51.2v51.2h51.2v-51.2ZM1280,1280h-51.2v51.2h51.2v-51.2ZM1382.4,1280h-51.2v51.2h51.2v-51.2ZM1484.8,1280h-51.2v51.2h51.2v-51.2ZM1126.4,1331.2h-51.2v51.2h51.2v-51.2ZM1228.8,1331.2h-51.2v51.2h51.2v-51.2ZM1331.2,1331.2h-51.2v51.2h51.2v-51.2ZM1433.6,1331.2h-51.2v51.2h51.2v-51.2ZM1536,1331.2h-51.2v51.2h51.2v-51.2ZM1075.2,1382.4h-51.2v51.2h51.2v-51.2ZM1177.6,1382.4h-51.2v51.2h51.2v-51.2ZM1280,1382.4h-51.2v51.2h51.2v-51.2ZM1382.4,1382.4h-51.2v51.2h51.2v-51.2ZM1484.8,1382.4h-51.2v51.2h51.2v-51.2ZM1126.4,1433.6h-51.2v51.2h51.2v-51.2ZM1228.8,1433.6h-51.2v51.2h51.2v-51.2ZM1331.2,1433.6h-51.2v51.2h51.2v-51.2ZM1433.6,1433.6h-51.2v51.2h51.2v-51.2ZM1536,1433.6h-51.2v51.2h51.2v-51.2ZM1075.2,1484.8h-51.2v51.2h51.2v-51.2ZM1177.6,1484.8h-51.2v51.2h51.2v-51.2ZM1280,1484.8h-51.2v51.2h51.2v-51.2ZM1382.4,1484.8h-51.2v51.2h51.2v-51.2ZM1484.8,1484.8h-51.2v51.2h51.2v-51.2ZM614.4,1075.2h-51.2v-51.2h51.2v51.2ZM716.8,1024h-51.2v51.2h51.2v-51.2ZM819.2,1024h-51.2v51.2h51.2v-51.2ZM921.6,1024h-51.2v51.2h51.2v-51.2ZM1024,1024h-51.2v51.2h51.2v-51.2ZM563.2,1075.2h-51.2v51.2h51.2v-51.2ZM665.6,1075.2h-51.2v51.2h51.2v-51.2ZM768,1075.2h-51.2v51.2h51.2v-51.2ZM870.4,1075.2h-51.2v51.2h51.2v-51.2ZM972.8,1075.2h-51.2v51.2h51.2v-51.2ZM614.4,1126.4h-51.2v51.2h51.2v-51.2ZM716.8,1126.4h-51.2v51.2h51.2v-51.2ZM819.2,1126.4h-51.2v51.2h51.2v-51.2ZM921.6,1126.4h-51.2v51.2h51.2v-51.2ZM1024,1126.4h-51.2v51.2h51.2v-51.2ZM563.2,1177.6h-51.2v51.2h51.2v-51.2ZM665.6,1177.6h-51.2v51.2h51.2v-51.2ZM768,1177.6h-51.2v51.2h51.2v-51.2ZM870.4,1177.6h-51.2v51.2h51.2v-51.2ZM972.8,1177.6h-51.2v51.2h51.2v-51.2ZM614.4,1228.8h-51.2v51.2h51.2v-51.2ZM716.8,1228.8h-51.2v51.2h51.2v-51.2ZM819.2,1228.8h-51.2v51.2h51.2v-51.2ZM921.6,1228.8h-51.2v51.2h51.2v-51.2ZM1024,1228.8h-51.2v51.2h51.2v-51.2ZM563.2,1280h-51.2v51.2h51.2v-51.2ZM665.6,1280h-51.2v51.2h51.2v-51.2ZM768,1280h-51.2v51.2h51.2v-51.2ZM870.4,1280h-51.2v51.2h51.2v-51.2ZM972.8,1280h-51.2v51.2h51.2v-51.2ZM614.4,1331.2h-51.2v51.2h51.2v-51.2ZM716.8,1331.2h-51.2v51.2h51.2v-51.2ZM819.2,1331.2h-51.2v51.2h51.2v-51.2ZM921.6,1331.2h-51.2v51.2h51.2v-51.2ZM1024,1331.2h-51.2v51.2h51.2v-51.2ZM563.2,1382.4h-51.2v51.2h51.2v-51.2ZM665.6,1382.4h-51.2v51.2h51.2v-51.2ZM768,1382.4h-51.2v51.2h51.2v-51.2ZM870.4,1382.4h-51.2v51.2h51.2v-51.2ZM972.8,1382.4h-51.2v51.2h51.2v-51.2ZM614.4,1433.6h-51.2v51.2h51.2v-51.2ZM716.8,1433.6h-51.2v51.2h51.2v-51.2ZM819.2,1433.6h-51.2v51.2h51.2v-51.2ZM921.6,1433.6h-51.2v51.2h51.2v-51.2ZM1024,1433.6h-51.2v51.2h51.2v-51.2ZM563.2,1484.8h-51.2v51.2h51.2v-51.2ZM665.6,1484.8h-51.2v51.2h51.2v-51.2ZM768,1484.8h-51.2v51.2h51.2v-51.2ZM870.4,1484.8h-51.2v51.2h51.2v-51.2ZM972.8,1484.8h-51.2v51.2h51.2v-51.2ZM102.4,1075.2h-51.2v-51.2h51.2v51.2ZM204.8,1024h-51.2v51.2h51.2v-51.2ZM307.2,1024h-51.2v51.2h51.2v-51.2ZM409.6,1024h-51.2v51.2h51.2v-51.2ZM512,1024h-51.2v51.2h51.2v-51.2ZM51.2,1075.2H0v51.2h51.2v-51.2ZM153.6,1075.2h-51.2v51.2h51.2v-51.2ZM256,1075.2h-51.2v51.2h51.2v-51.2ZM358.4,1075.2h-51.2v51.2h51.2v-51.2ZM460.8,1075.2h-51.2v51.2h51.2v-51.2ZM102.4,1126.4h-51.2v51.2h51.2v-51.2ZM204.8,1126.4h-51.2v51.2h51.2v-51.2ZM307.2,1126.4h-51.2v51.2h51.2v-51.2ZM409.6,1126.4h-51.2v51.2h51.2v-51.2ZM512,1126.4h-51.2v51.2h51.2v-51.2ZM51.2,1177.6H0v51.2h51.2v-51.2ZM153.6,1177.6h-51.2v51.2h51.2v-51.2ZM256,1177.6h-51.2v51.2h51.2v-51.2ZM358.4,1177.6h-51.2v51.2h51.2v-51.2ZM460.8,1177.6h-51.2v51.2h51.2v-51.2ZM102.4,1228.8h-51.2v51.2h51.2v-51.2ZM204.8,1228.8h-51.2v51.2h51.2v-51.2ZM307.2,1228.8h-51.2v51.2h51.2v-51.2ZM409.6,1228.8h-51.2v51.2h51.2v-51.2ZM512,1228.8h-51.2v51.2h51.2v-51.2ZM51.2,1280H0v51.2h51.2v-51.2ZM153.6,1280h-51.2v51.2h51.2v-51.2ZM256,1280h-51.2v51.2h51.2v-51.2ZM358.4,1280h-51.2v51.2h51.2v-51.2ZM460.8,1280h-51.2v51.2h51.2v-51.2ZM102.4,1331.2h-51.2v51.2h51.2v-51.2ZM204.8,1331.2h-51.2v51.2h51.2v-51.2ZM307.2,1331.2h-51.2v51.2h51.2v-51.2ZM409.6,1331.2h-51.2v51.2h51.2v-51.2ZM512,1331.2h-51.2v51.2h51.2v-51.2ZM51.2,1382.4H0v51.2h51.2v-51.2ZM153.6,1382.4h-51.2v51.2h51.2v-51.2ZM256,1382.4h-51.2v51.2h51.2v-51.2ZM358.4,1382.4h-51.2v51.2h51.2v-51.2ZM460.8,1382.4h-51.2v51.2h51.2v-51.2ZM102.4,1433.6h-51.2v51.2h51.2v-51.2ZM204.8,1433.6h-51.2v51.2h51.2v-51.2ZM307.2,1433.6h-51.2v51.2h51.2v-51.2ZM409.6,1433.6h-51.2v51.2h51.2v-51.2ZM512,1433.6h-51.2v51.2h51.2v-51.2ZM51.2,1484.8H0v51.2h51.2v-51.2ZM153.6,1484.8h-51.2v51.2h51.2v-51.2ZM256,1484.8h-51.2v51.2h51.2v-51.2ZM358.4,1484.8h-51.2v51.2h51.2v-51.2ZM460.8,1484.8h-51.2v51.2h51.2v-51.2ZM2150.4,563.2h-51.2v-51.2h51.2v51.2ZM2252.8,512h-51.2v51.2h51.2v-51.2ZM2355.2,512h-51.2v51.2h51.2v-51.2ZM2457.6,512h-51.2v51.2h51.2v-51.2ZM2560,512h-51.2v51.2h51.2v-51.2ZM2099.2,563.2h-51.2v51.2h51.2v-51.2ZM2201.6,563.2h-51.2v51.2h51.2v-51.2ZM2304,563.2h-51.2v51.2h51.2v-51.2ZM2406.4,563.2h-51.2v51.2h51.2v-51.2ZM2508.8,563.2h-51.2v51.2h51.2v-51.2ZM2150.4,614.4h-51.2v51.2h51.2v-51.2ZM2252.8,614.4h-51.2v51.2h51.2v-51.2ZM2355.2,614.4h-51.2v51.2h51.2v-51.2ZM2457.6,614.4h-51.2v51.2h51.2v-51.2ZM2560,614.4h-51.2v51.2h51.2v-51.2ZM2099.2,665.6h-51.2v51.2h51.2v-51.2ZM2201.6,665.6h-51.2v51.2h51.2v-51.2ZM2304,665.6h-51.2v51.2h51.2v-51.2ZM2406.4,665.6h-51.2v51.2h51.2v-51.2ZM2508.8,665.6h-51.2v51.2h51.2v-51.2ZM2150.4,716.8h-51.2v51.2h51.2v-51.2ZM2252.8,716.8h-51.2v51.2h51.2v-51.2ZM2355.2,716.8h-51.2v51.2h51.2v-51.2ZM2457.6,716.8h-51.2v51.2h51.2v-51.2ZM2560,716.8h-51.2v51.2h51.2v-51.2ZM2099.2,768h-51.2v51.2h51.2v-51.2ZM2201.6,768h-51.2v51.2h51.2v-51.2ZM2304,768h-51.2v51.2h51.2v-51.2ZM2406.4,768h-51.2v51.2h51.2v-51.2ZM2508.8,768h-51.2v51.2h51.2v-51.2ZM2150.4,819.2h-51.2v51.2h51.2v-51.2ZM2252.8,819.2h-51.2v51.2h51.2v-51.2ZM2355.2,819.2h-51.2v51.2h51.2v-51.2ZM2457.6,819.2h-51.2v51.2h51.2v-51.2ZM2560,819.2h-51.2v51.2h51.2v-51.2ZM2099.2,870.4h-51.2v51.2h51.2v-51.2ZM2201.6,870.4h-51.2v51.2h51.2v-51.2ZM2304,870.4h-51.2v51.2h51.2v-51.2ZM2406.4,870.4h-51.2v51.2h51.2v-51.2ZM2508.8,870.4h-51.2v51.2h51.2v-51.2ZM2150.4,921.6h-51.2v51.2h51.2v-51.2ZM2252.8,921.6h-51.2v51.2h51.2v-51.2ZM2355.2,921.6h-51.2v51.2h51.2v-51.2ZM2457.6,921.6h-51.2v51.2h51.2v-51.2ZM2560,921.6h-51.2v51.2h51.2v-51.2ZM2099.2,972.8h-51.2v51.2h51.2v-51.2ZM2201.6,972.8h-51.2v51.2h51.2v-51.2ZM2304,972.8h-51.2v51.2h51.2v-51.2ZM2406.4,972.8h-51.2v51.2h51.2v-51.2ZM2508.8,972.8h-51.2v51.2h51.2v-51.2ZM1638.4,563.2h-51.2v-51.2h51.2v51.2ZM1740.8,512h-51.2v51.2h51.2v-51.2ZM1843.2,512h-51.2v51.2h51.2v-51.2ZM1945.6,512h-51.2v51.2h51.2v-51.2ZM2048,512h-51.2v51.2h51.2v-51.2ZM1587.2,563.2h-51.2v51.2h51.2v-51.2ZM1689.6,563.2h-51.2v51.2h51.2v-51.2ZM1792,563.2h-51.2v51.2h51.2v-51.2ZM1894.4,563.2h-51.2v51.2h51.2v-51.2ZM1996.8,563.2h-51.2v51.2h51.2v-51.2ZM1638.4,614.4h-51.2v51.2h51.2v-51.2ZM1740.8,614.4h-51.2v51.2h51.2v-51.2ZM1843.2,614.4h-51.2v51.2h51.2v-51.2ZM1945.6,614.4h-51.2v51.2h51.2v-51.2ZM2048,614.4h-51.2v51.2h51.2v-51.2ZM1587.2,665.6h-51.2v51.2h51.2v-51.2ZM1689.6,665.6h-51.2v51.2h51.2v-51.2ZM1792,665.6h-51.2v51.2h51.2v-51.2ZM1894.4,665.6h-51.2v51.2h51.2v-51.2ZM1996.8,665.6h-51.2v51.2h51.2v-51.2ZM1638.4,716.8h-51.2v51.2h51.2v-51.2ZM1740.8,716.8h-51.2v51.2h51.2v-51.2ZM1843.2,716.8h-51.2v51.2h51.2v-51.2ZM1945.6,716.8h-51.2v51.2h51.2v-51.2ZM2048,716.8h-51.2v51.2h51.2v-51.2ZM1587.2,768h-51.2v51.2h51.2v-51.2ZM1689.6,768h-51.2v51.2h51.2v-51.2ZM1792,768h-51.2v51.2h51.2v-51.2ZM1894.4,768h-51.2v51.2h51.2v-51.2ZM1996.8,768h-51.2v51.2h51.2v-51.2ZM1638.4,819.2h-51.2v51.2h51.2v-51.2ZM1740.8,819.2h-51.2v51.2h51.2v-51.2ZM1843.2,819.2h-51.2v51.2h51.2v-51.2ZM1945.6,819.2h-51.2v51.2h51.2v-51.2ZM2048,819.2h-51.2v51.2h51.2v-51.2ZM1587.2,870.4h-51.2v51.2h51.2v-51.2ZM1689.6,870.4h-51.2v51.2h51.2v-51.2ZM1792,870.4h-51.2v51.2h51.2v-51.2ZM1894.4,870.4h-51.2v51.2h51.2v-51.2ZM1996.8,870.4h-51.2v51.2h51.2v-51.2ZM1638.4,921.6h-51.2v51.2h51.2v-51.2ZM1740.8,921.6h-51.2v51.2h51.2v-51.2ZM1843.2,921.6h-51.2v51.2h51.2v-51.2ZM1945.6,921.6h-51.2v51.2h51.2v-51.2ZM2048,921.6h-51.2v51.2h51.2v-51.2ZM1587.2,972.8h-51.2v51.2h51.2v-51.2ZM1689.6,972.8h-51.2v51.2h51.2v-51.2ZM1792,972.8h-51.2v51.2h51.2v-51.2ZM1894.4,972.8h-51.2v51.2h51.2v-51.2ZM1996.8,972.8h-51.2v51.2h51.2v-51.2ZM1126.4,563.2h-51.2v-51.2h51.2v51.2ZM1228.8,512h-51.2v51.2h51.2v-51.2ZM1331.2,512h-51.2v51.2h51.2v-51.2ZM1433.6,512h-51.2v51.2h51.2v-51.2ZM1536,512h-51.2v51.2h51.2v-51.2ZM1075.2,563.2h-51.2v51.2h51.2v-51.2ZM1177.6,563.2h-51.2v51.2h51.2v-51.2ZM1280,563.2h-51.2v51.2h51.2v-51.2ZM1382.4,563.2h-51.2v51.2h51.2v-51.2ZM1484.8,563.2h-51.2v51.2h51.2v-51.2ZM1126.4,614.4h-51.2v51.2h51.2v-51.2ZM1228.8,614.4h-51.2v51.2h51.2v-51.2ZM1331.2,614.4h-51.2v51.2h51.2v-51.2ZM1433.6,614.4h-51.2v51.2h51.2v-51.2ZM1536,614.4h-51.2v51.2h51.2v-51.2ZM1075.2,665.6h-51.2v51.2h51.2v-51.2ZM1177.6,665.6h-51.2v51.2h51.2v-51.2ZM1280,665.6h-51.2v51.2h51.2v-51.2ZM1382.4,665.6h-51.2v51.2h51.2v-51.2ZM1484.8,665.6h-51.2v51.2h51.2v-51.2ZM1126.4,716.8h-51.2v51.2h51.2v-51.2ZM1228.8,716.8h-51.2v51.2h51.2v-51.2ZM1331.2,716.8h-51.2v51.2h51.2v-51.2ZM1433.6,716.8h-51.2v51.2h51.2v-51.2ZM1536,716.8h-51.2v51.2h51.2v-51.2ZM1075.2,768h-51.2v51.2h51.2v-51.2ZM1177.6,768h-51.2v51.2h51.2v-51.2ZM1280,768h-51.2v51.2h51.2v-51.2ZM1382.4,768h-51.2v51.2h51.2v-51.2ZM1484.8,768h-51.2v51.2h51.2v-51.2ZM1126.4,819.2h-51.2v51.2h51.2v-51.2ZM1228.8,819.2h-51.2v51.2h51.2v-51.2ZM1331.2,819.2h-51.2v51.2h51.2v-51.2ZM1433.6,819.2h-51.2v51.2h51.2v-51.2ZM1536,819.2h-51.2v51.2h51.2v-51.2ZM1075.2,870.4h-51.2v51.2h51.2v-51.2ZM1177.6,870.4h-51.2v51.2h51.2v-51.2ZM1280,870.4h-51.2v51.2h51.2v-51.2ZM1382.4,870.4h-51.2v51.2h51.2v-51.2ZM1484.8,870.4h-51.2v51.2h51.2v-51.2ZM1126.4,921.6h-51.2v51.2h51.2v-51.2ZM1228.8,921.6h-51.2v51.2h51.2v-51.2ZM1331.2,921.6h-51.2v51.2h51.2v-51.2ZM1433.6,921.6h-51.2v51.2h51.2v-51.2ZM1536,921.6h-51.2v51.2h51.2v-51.2ZM1075.2,972.8h-51.2v51.2h51.2v-51.2ZM1177.6,972.8h-51.2v51.2h51.2v-51.2ZM1280,972.8h-51.2v51.2h51.2v-51.2ZM1382.4,972.8h-51.2v51.2h51.2v-51.2ZM1484.8,972.8h-51.2v51.2h51.2v-51.2ZM614.4,563.2h-51.2v-51.2h51.2v51.2ZM716.8,512h-51.2v51.2h51.2v-51.2ZM819.2,512h-51.2v51.2h51.2v-51.2ZM921.6,512h-51.2v51.2h51.2v-51.2ZM1024,512h-51.2v51.2h51.2v-51.2ZM563.2,563.2h-51.2v51.2h51.2v-51.2ZM665.6,563.2h-51.2v51.2h51.2v-51.2ZM768,563.2h-51.2v51.2h51.2v-51.2ZM870.4,563.2h-51.2v51.2h51.2v-51.2ZM972.8,563.2h-51.2v51.2h51.2v-51.2ZM614.4,614.4h-51.2v51.2h51.2v-51.2ZM716.8,614.4h-51.2v51.2h51.2v-51.2ZM819.2,614.4h-51.2v51.2h51.2v-51.2ZM921.6,614.4h-51.2v51.2h51.2v-51.2ZM1024,614.4h-51.2v51.2h51.2v-51.2ZM563.2,665.6h-51.2v51.2h51.2v-51.2ZM665.6,665.6h-51.2v51.2h51.2v-51.2ZM768,665.6h-51.2v51.2h51.2v-51.2ZM870.4,665.6h-51.2v51.2h51.2v-51.2ZM972.8,665.6h-51.2v51.2h51.2v-51.2ZM614.4,716.8h-51.2v51.2h51.2v-51.2ZM716.8,716.8h-51.2v51.2h51.2v-51.2ZM819.2,716.8h-51.2v51.2h51.2v-51.2ZM921.6,716.8h-51.2v51.2h51.2v-51.2ZM1024,716.8h-51.2v51.2h51.2v-51.2ZM563.2,768h-51.2v51.2h51.2v-51.2ZM665.6,768h-51.2v51.2h51.2v-51.2ZM768,768h-51.2v51.2h51.2v-51.2ZM870.4,768h-51.2v51.2h51.2v-51.2ZM972.8,768h-51.2v51.2h51.2v-51.2ZM614.4,819.2h-51.2v51.2h51.2v-51.2ZM716.8,819.2h-51.2v51.2h51.2v-51.2ZM819.2,819.2h-51.2v51.2h51.2v-51.2ZM921.6,819.2h-51.2v51.2h51.2v-51.2ZM1024,819.2h-51.2v51.2h51.2v-51.2ZM563.2,870.4h-51.2v51.2h51.2v-51.2ZM665.6,870.4h-51.2v51.2h51.2v-51.2ZM768,870.4h-51.2v51.2h51.2v-51.2ZM870.4,870.4h-51.2v51.2h51.2v-51.2ZM972.8,870.4h-51.2v51.2h51.2v-51.2ZM614.4,921.6h-51.2v51.2h51.2v-51.2ZM716.8,921.6h-51.2v51.2h51.2v-51.2ZM819.2,921.6h-51.2v51.2h51.2v-51.2ZM921.6,921.6h-51.2v51.2h51.2v-51.2ZM1024,921.6h-51.2v51.2h51.2v-51.2ZM563.2,972.8h-51.2v51.2h51.2v-51.2ZM665.6,972.8h-51.2v51.2h51.2v-51.2ZM768,972.8h-51.2v51.2h51.2v-51.2ZM870.4,972.8h-51.2v51.2h51.2v-51.2ZM972.8,972.8h-51.2v51.2h51.2v-51.2ZM102.4,563.2h-51.2v-51.2h51.2v51.2ZM204.8,512h-51.2v51.2h51.2v-51.2ZM307.2,512h-51.2v51.2h51.2v-51.2ZM409.6,512h-51.2v51.2h51.2v-51.2ZM512,512h-51.2v51.2h51.2v-51.2ZM51.2,563.2H0v51.2h51.2v-51.2ZM153.6,563.2h-51.2v51.2h51.2v-51.2ZM256,563.2h-51.2v51.2h51.2v-51.2ZM358.4,563.2h-51.2v51.2h51.2v-51.2ZM460.8,563.2h-51.2v51.2h51.2v-51.2ZM102.4,614.4h-51.2v51.2h51.2v-51.2ZM204.8,614.4h-51.2v51.2h51.2v-51.2ZM307.2,614.4h-51.2v51.2h51.2v-51.2ZM409.6,614.4h-51.2v51.2h51.2v-51.2ZM512,614.4h-51.2v51.2h51.2v-51.2ZM51.2,665.6H0v51.2h51.2v-51.2ZM153.6,665.6h-51.2v51.2h51.2v-51.2ZM256,665.6h-51.2v51.2h51.2v-51.2ZM358.4,665.6h-51.2v51.2h51.2v-51.2ZM460.8,665.6h-51.2v51.2h51.2v-51.2ZM102.4,716.8h-51.2v51.2h51.2v-51.2ZM204.8,716.8h-51.2v51.2h51.2v-51.2ZM307.2,716.8h-51.2v51.2h51.2v-51.2ZM409.6,716.8h-51.2v51.2h51.2v-51.2ZM512,716.8h-51.2v51.2h51.2v-51.2ZM51.2,768H0v51.2h51.2v-51.2ZM153.6,768h-51.2v51.2h51.2v-51.2ZM256,768h-51.2v51.2h51.2v-51.2ZM358.4,768h-51.2v51.2h51.2v-51.2ZM460.8,768h-51.2v51.2h51.2v-51.2ZM102.4,819.2h-51.2v51.2h51.2v-51.2ZM204.8,819.2h-51.2v51.2h51.2v-51.2ZM307.2,819.2h-51.2v51.2h51.2v-51.2ZM409.6,819.2h-51.2v51.2h51.2v-51.2ZM512,819.2h-51.2v51.2h51.2v-51.2ZM51.2,870.4H0v51.2h51.2v-51.2ZM153.6,870.4h-51.2v51.2h51.2v-51.2ZM256,870.4h-51.2v51.2h51.2v-51.2ZM358.4,870.4h-51.2v51.2h51.2v-51.2ZM460.8,870.4h-51.2v51.2h51.2v-51.2ZM102.4,921.6h-51.2v51.2h51.2v-51.2ZM204.8,921.6h-51.2v51.2h51.2v-51.2ZM307.2,921.6h-51.2v51.2h51.2v-51.2ZM409.6,921.6h-51.2v51.2h51.2v-51.2ZM512,921.6h-51.2v51.2h51.2v-51.2ZM51.2,972.8H0v51.2h51.2v-51.2ZM153.6,972.8h-51.2v51.2h51.2v-51.2ZM256,972.8h-51.2v51.2h51.2v-51.2ZM358.4,972.8h-51.2v51.2h51.2v-51.2ZM460.8,972.8h-51.2v51.2h51.2v-51.2ZM2150.4,51.2h-51.2V0h51.2v51.2ZM2252.8,0h-51.2v51.2h51.2V0ZM2355.2,0h-51.2v51.2h51.2V0ZM2457.6,0h-51.2v51.2h51.2V0ZM2560,0h-51.2v51.2h51.2V0ZM2099.2,51.2h-51.2v51.2h51.2v-51.2ZM2201.6,51.2h-51.2v51.2h51.2v-51.2ZM2304,51.2h-51.2v51.2h51.2v-51.2ZM2406.4,51.2h-51.2v51.2h51.2v-51.2ZM2508.8,51.2h-51.2v51.2h51.2v-51.2ZM2150.4,102.4h-51.2v51.2h51.2v-51.2ZM2252.8,102.4h-51.2v51.2h51.2v-51.2ZM2355.2,102.4h-51.2v51.2h51.2v-51.2ZM2457.6,102.4h-51.2v51.2h51.2v-51.2ZM2560,102.4h-51.2v51.2h51.2v-51.2ZM2099.2,153.6h-51.2v51.2h51.2v-51.2ZM2201.6,153.6h-51.2v51.2h51.2v-51.2ZM2304,153.6h-51.2v51.2h51.2v-51.2ZM2406.4,153.6h-51.2v51.2h51.2v-51.2ZM2508.8,153.6h-51.2v51.2h51.2v-51.2ZM2150.4,204.8h-51.2v51.2h51.2v-51.2ZM2252.8,204.8h-51.2v51.2h51.2v-51.2ZM2355.2,204.8h-51.2v51.2h51.2v-51.2ZM2457.6,204.8h-51.2v51.2h51.2v-51.2ZM2560,204.8h-51.2v51.2h51.2v-51.2ZM2099.2,256h-51.2v51.2h51.2v-51.2ZM2201.6,256h-51.2v51.2h51.2v-51.2ZM2304,256h-51.2v51.2h51.2v-51.2ZM2406.4,256h-51.2v51.2h51.2v-51.2ZM2508.8,256h-51.2v51.2h51.2v-51.2ZM2150.4,307.2h-51.2v51.2h51.2v-51.2ZM2252.8,307.2h-51.2v51.2h51.2v-51.2ZM2355.2,307.2h-51.2v51.2h51.2v-51.2ZM2457.6,307.2h-51.2v51.2h51.2v-51.2ZM2560,307.2h-51.2v51.2h51.2v-51.2ZM2099.2,358.4h-51.2v51.2h51.2v-51.2ZM2201.6,358.4h-51.2v51.2h51.2v-51.2ZM2304,358.4h-51.2v51.2h51.2v-51.2ZM2406.4,358.4h-51.2v51.2h51.2v-51.2ZM2508.8,358.4h-51.2v51.2h51.2v-51.2ZM2150.4,409.6h-51.2v51.2h51.2v-51.2ZM2252.8,409.6h-51.2v51.2h51.2v-51.2ZM2355.2,409.6h-51.2v51.2h51.2v-51.2ZM2457.6,409.6h-51.2v51.2h51.2v-51.2ZM2560,409.6h-51.2v51.2h51.2v-51.2ZM2099.2,460.8h-51.2v51.2h51.2v-51.2ZM2201.6,460.8h-51.2v51.2h51.2v-51.2ZM2304,460.8h-51.2v51.2h51.2v-51.2ZM2406.4,460.8h-51.2v51.2h51.2v-51.2ZM2508.8,460.8h-51.2v51.2h51.2v-51.2ZM1638.4,51.2h-51.2V0h51.2v51.2ZM1740.8,0h-51.2v51.2h51.2V0ZM1843.2,0h-51.2v51.2h51.2V0ZM1945.6,0h-51.2v51.2h51.2V0ZM2048,0h-51.2v51.2h51.2V0ZM1587.2,51.2h-51.2v51.2h51.2v-51.2ZM1689.6,51.2h-51.2v51.2h51.2v-51.2ZM1792,51.2h-51.2v51.2h51.2v-51.2ZM1894.4,51.2h-51.2v51.2h51.2v-51.2ZM1996.8,51.2h-51.2v51.2h51.2v-51.2ZM1638.4,102.4h-51.2v51.2h51.2v-51.2ZM1740.8,102.4h-51.2v51.2h51.2v-51.2ZM1843.2,102.4h-51.2v51.2h51.2v-51.2ZM1945.6,102.4h-51.2v51.2h51.2v-51.2ZM2048,102.4h-51.2v51.2h51.2v-51.2ZM1587.2,153.6h-51.2v51.2h51.2v-51.2ZM1689.6,153.6h-51.2v51.2h51.2v-51.2ZM1792,153.6h-51.2v51.2h51.2v-51.2ZM1894.4,153.6h-51.2v51.2h51.2v-51.2ZM1996.8,153.6h-51.2v51.2h51.2v-51.2ZM1638.4,204.8h-51.2v51.2h51.2v-51.2ZM1740.8,204.8h-51.2v51.2h51.2v-51.2ZM1843.2,204.8h-51.2v51.2h51.2v-51.2ZM1945.6,204.8h-51.2v51.2h51.2v-51.2ZM2048,204.8h-51.2v51.2h51.2v-51.2ZM1587.2,256h-51.2v51.2h51.2v-51.2ZM1689.6,256h-51.2v51.2h51.2v-51.2ZM1792,256h-51.2v51.2h51.2v-51.2ZM1894.4,256h-51.2v51.2h51.2v-51.2ZM1996.8,256h-51.2v51.2h51.2v-51.2ZM1638.4,307.2h-51.2v51.2h51.2v-51.2ZM1740.8,307.2h-51.2v51.2h51.2v-51.2ZM1843.2,307.2h-51.2v51.2h51.2v-51.2ZM1945.6,307.2h-51.2v51.2h51.2v-51.2ZM2048,307.2h-51.2v51.2h51.2v-51.2ZM1587.2,358.4h-51.2v51.2h51.2v-51.2ZM1689.6,358.4h-51.2v51.2h51.2v-51.2ZM1792,358.4h-51.2v51.2h51.2v-51.2ZM1894.4,358.4h-51.2v51.2h51.2v-51.2ZM1996.8,358.4h-51.2v51.2h51.2v-51.2ZM1638.4,409.6h-51.2v51.2h51.2v-51.2ZM1740.8,409.6h-51.2v51.2h51.2v-51.2ZM1843.2,409.6h-51.2v51.2h51.2v-51.2ZM1945.6,409.6h-51.2v51.2h51.2v-51.2ZM2048,409.6h-51.2v51.2h51.2v-51.2ZM1587.2,460.8h-51.2v51.2h51.2v-51.2ZM1689.6,460.8h-51.2v51.2h51.2v-51.2ZM1792,460.8h-51.2v51.2h51.2v-51.2ZM1894.4,460.8h-51.2v51.2h51.2v-51.2ZM1996.8,460.8h-51.2v51.2h51.2v-51.2ZM1126.4,51.2h-51.2V0h51.2v51.2ZM1228.8,0h-51.2v51.2h51.2V0ZM1331.2,0h-51.2v51.2h51.2V0ZM1433.6,0h-51.2v51.2h51.2V0ZM1536,0h-51.2v51.2h51.2V0ZM1075.2,51.2h-51.2v51.2h51.2v-51.2ZM1177.6,51.2h-51.2v51.2h51.2v-51.2ZM1280,51.2h-51.2v51.2h51.2v-51.2ZM1382.4,51.2h-51.2v51.2h51.2v-51.2ZM1484.8,51.2h-51.2v51.2h51.2v-51.2ZM1126.4,102.4h-51.2v51.2h51.2v-51.2ZM1228.8,102.4h-51.2v51.2h51.2v-51.2ZM1331.2,102.4h-51.2v51.2h51.2v-51.2ZM1433.6,102.4h-51.2v51.2h51.2v-51.2ZM1536,102.4h-51.2v51.2h51.2v-51.2ZM1075.2,153.6h-51.2v51.2h51.2v-51.2ZM1177.6,153.6h-51.2v51.2h51.2v-51.2ZM1280,153.6h-51.2v51.2h51.2v-51.2ZM1382.4,153.6h-51.2v51.2h51.2v-51.2ZM1484.8,153.6h-51.2v51.2h51.2v-51.2ZM1126.4,204.8h-51.2v51.2h51.2v-51.2ZM1228.8,204.8h-51.2v51.2h51.2v-51.2ZM1331.2,204.8h-51.2v51.2h51.2v-51.2ZM1433.6,204.8h-51.2v51.2h51.2v-51.2ZM1536,204.8h-51.2v51.2h51.2v-51.2ZM1075.2,256h-51.2v51.2h51.2v-51.2ZM1177.6,256h-51.2v51.2h51.2v-51.2ZM1280,256h-51.2v51.2h51.2v-51.2ZM1382.4,256h-51.2v51.2h51.2v-51.2ZM1484.8,256h-51.2v51.2h51.2v-51.2ZM1126.4,307.2h-51.2v51.2h51.2v-51.2ZM1228.8,307.2h-51.2v51.2h51.2v-51.2ZM1331.2,307.2h-51.2v51.2h51.2v-51.2ZM1433.6,307.2h-51.2v51.2h51.2v-51.2ZM1536,307.2h-51.2v51.2h51.2v-51.2ZM1075.2,358.4h-51.2v51.2h51.2v-51.2ZM1177.6,358.4h-51.2v51.2h51.2v-51.2ZM1280,358.4h-51.2v51.2h51.2v-51.2ZM1382.4,358.4h-51.2v51.2h51.2v-51.2ZM1484.8,358.4h-51.2v51.2h51.2v-51.2ZM1126.4,409.6h-51.2v51.2h51.2v-51.2ZM1228.8,409.6h-51.2v51.2h51.2v-51.2ZM1331.2,409.6h-51.2v51.2h51.2v-51.2ZM1433.6,409.6h-51.2v51.2h51.2v-51.2ZM1536,409.6h-51.2v51.2h51.2v-51.2ZM1075.2,460.8h-51.2v51.2h51.2v-51.2ZM1177.6,460.8h-51.2v51.2h51.2v-51.2ZM1280,460.8h-51.2v51.2h51.2v-51.2ZM1382.4,460.8h-51.2v51.2h51.2v-51.2ZM1484.8,460.8h-51.2v51.2h51.2v-51.2ZM614.4,51.2h-51.2V0h51.2v51.2ZM716.8,0h-51.2v51.2h51.2V0ZM819.2,0h-51.2v51.2h51.2V0ZM921.6,0h-51.2v51.2h51.2V0ZM1024,0h-51.2v51.2h51.2V0ZM563.2,51.2h-51.2v51.2h51.2v-51.2ZM665.6,51.2h-51.2v51.2h51.2v-51.2ZM768,51.2h-51.2v51.2h51.2v-51.2ZM870.4,51.2h-51.2v51.2h51.2v-51.2ZM972.8,51.2h-51.2v51.2h51.2v-51.2ZM614.4,102.4h-51.2v51.2h51.2v-51.2ZM716.8,102.4h-51.2v51.2h51.2v-51.2ZM819.2,102.4h-51.2v51.2h51.2v-51.2ZM921.6,102.4h-51.2v51.2h51.2v-51.2ZM1024,102.4h-51.2v51.2h51.2v-51.2ZM563.2,153.6h-51.2v51.2h51.2v-51.2ZM665.6,153.6h-51.2v51.2h51.2v-51.2ZM768,153.6h-51.2v51.2h51.2v-51.2ZM870.4,153.6h-51.2v51.2h51.2v-51.2ZM972.8,153.6h-51.2v51.2h51.2v-51.2ZM614.4,204.8h-51.2v51.2h51.2v-51.2ZM716.8,204.8h-51.2v51.2h51.2v-51.2ZM819.2,204.8h-51.2v51.2h51.2v-51.2ZM921.6,204.8h-51.2v51.2h51.2v-51.2ZM1024,204.8h-51.2v51.2h51.2v-51.2ZM563.2,256h-51.2v51.2h51.2v-51.2ZM665.6,256h-51.2v51.2h51.2v-51.2ZM768,256h-51.2v51.2h51.2v-51.2ZM870.4,256h-51.2v51.2h51.2v-51.2ZM972.8,256h-51.2v51.2h51.2v-51.2ZM614.4,307.2h-51.2v51.2h51.2v-51.2ZM716.8,307.2h-51.2v51.2h51.2v-51.2ZM819.2,307.2h-51.2v51.2h51.2v-51.2ZM921.6,307.2h-51.2v51.2h51.2v-51.2ZM1024,307.2h-51.2v51.2h51.2v-51.2ZM563.2,358.4h-51.2v51.2h51.2v-51.2ZM665.6,358.4h-51.2v51.2h51.2v-51.2ZM768,358.4h-51.2v51.2h51.2v-51.2ZM870.4,358.4h-51.2v51.2h51.2v-51.2ZM972.8,358.4h-51.2v51.2h51.2v-51.2ZM614.4,409.6h-51.2v51.2h51.2v-51.2ZM716.8,409.6h-51.2v51.2h51.2v-51.2ZM819.2,409.6h-51.2v51.2h51.2v-51.2ZM921.6,409.6h-51.2v51.2h51.2v-51.2ZM1024,409.6h-51.2v51.2h51.2v-51.2ZM563.2,460.8h-51.2v51.2h51.2v-51.2ZM665.6,460.8h-51.2v51.2h51.2v-51.2ZM768,460.8h-51.2v51.2h51.2v-51.2ZM870.4,460.8h-51.2v51.2h51.2v-51.2ZM972.8,460.8h-51.2v51.2h51.2v-51.2ZM102.4,51.2h-51.2V0h51.2v51.2ZM204.8,0h-51.2v51.2h51.2V0ZM307.2,0h-51.2v51.2h51.2V0ZM409.6,0h-51.2v51.2h51.2V0ZM512,0h-51.2v51.2h51.2V0ZM51.2,51.2H0v51.2h51.2v-51.2ZM153.6,51.2h-51.2v51.2h51.2v-51.2ZM256,51.2h-51.2v51.2h51.2v-51.2ZM358.4,51.2h-51.2v51.2h51.2v-51.2ZM460.8,51.2h-51.2v51.2h51.2v-51.2ZM102.4,102.4h-51.2v51.2h51.2v-51.2ZM204.8,102.4h-51.2v51.2h51.2v-51.2ZM307.2,102.4h-51.2v51.2h51.2v-51.2ZM409.6,102.4h-51.2v51.2h51.2v-51.2ZM512,102.4h-51.2v51.2h51.2v-51.2ZM51.2,153.6H0v51.2h51.2v-51.2ZM153.6,153.6h-51.2v51.2h51.2v-51.2ZM256,153.6h-51.2v51.2h51.2v-51.2ZM358.4,153.6h-51.2v51.2h51.2v-51.2ZM460.8,153.6h-51.2v51.2h51.2v-51.2ZM102.4,204.8h-51.2v51.2h51.2v-51.2ZM204.8,204.8h-51.2v51.2h51.2v-51.2ZM307.2,204.8h-51.2v51.2h51.2v-51.2ZM409.6,204.8h-51.2v51.2h51.2v-51.2ZM512,204.8h-51.2v51.2h51.2v-51.2ZM51.2,256H0v51.2h51.2v-51.2ZM153.6,256h-51.2v51.2h51.2v-51.2ZM256,256h-51.2v51.2h51.2v-51.2ZM358.4,256h-51.2v51.2h51.2v-51.2ZM460.8,256h-51.2v51.2h51.2v-51.2ZM102.4,307.2h-51.2v51.2h51.2v-51.2ZM204.8,307.2h-51.2v51.2h51.2v-51.2ZM307.2,307.2h-51.2v51.2h51.2v-51.2ZM409.6,307.2h-51.2v51.2h51.2v-51.2ZM512,307.2h-51.2v51.2h51.2v-51.2ZM51.2,358.4H0v51.2h51.2v-51.2ZM153.6,358.4h-51.2v51.2h51.2v-51.2ZM256,358.4h-51.2v51.2h51.2v-51.2ZM358.4,358.4h-51.2v51.2h51.2v-51.2ZM460.8,358.4h-51.2v51.2h51.2v-51.2ZM102.4,409.6h-51.2v51.2h51.2v-51.2ZM204.8,409.6h-51.2v51.2h51.2v-51.2ZM307.2,409.6h-51.2v51.2h51.2v-51.2ZM409.6,409.6h-51.2v51.2h51.2v-51.2ZM512,409.6h-51.2v51.2h51.2v-51.2ZM51.2,460.8H0v51.2h51.2v-51.2ZM153.6,460.8h-51.2v51.2h51.2v-51.2ZM256,460.8h-51.2v51.2h51.2v-51.2ZM358.4,460.8h-51.2v51.2h51.2v-51.2ZM460.8,460.8h-51.2v51.2h51.2v-51.2Z"/>
  <path class="cls-1" d="M2099.2,2099.2h-51.2v-51.2h51.2v51.2ZM2201.6,2048h-51.2v51.2h51.2v-51.2ZM2304,2048h-51.2v51.2h51.2v-51.2ZM2406.4,2048h-51.2v51.2h51.2v-51.2ZM2508.8,2048h-51.2v51.2h51.2v-51.2ZM2150.4,2099.2h-51.2v51.2h51.2v-51.2ZM2252.8,2099.2h-51.2v51.2h51.2v-51.2ZM2355.2,2099.2h-51.2v51.2h51.2v-51.2ZM2457.6,2099.2h-51.2v51.2h51.2v-51.2ZM2560,2099.2h-51.2v51.2h51.2v-51.2ZM2099.2,2150.4h-51.2v51.2h51.2v-51.2ZM2201.6,2150.4h-51.2v51.2h51.2v-51.2ZM2304,2150.4h-51.2v51.2h51.2v-51.2ZM2406.4,2150.4h-51.2v51.2h51.2v-51.2ZM2508.8,2150.4h-51.2v51.2h51.2v-51.2ZM2150.4,2201.6h-51.2v51.2h51.2v-51.2ZM2252.8,2201.6h-51.2v51.2h51.2v-51.2ZM2355.2,2201.6h-51.2v51.2h51.2v-51.2ZM2457.6,2201.6h-51.2v51.2h51.2v-51.2ZM2560,2201.6h-51.2v51.2h51.2v-51.2ZM2099.2,2252.8h-51.2v51.2h51.2v-51.2ZM2201.6,2252.8h-51.2v51.2h51.2v-51.2ZM2304,2252.8h-51.2v51.2h51.2v-51.2ZM2406.4,2252.8h-51.2v51.2h51.2v-51.2ZM2508.8,2252.8h-51.2v51.2h51.2v-51.2ZM2150.4,2304h-51.2v51.2h51.2v-51.2ZM2252.8,2304h-51.2v51.2h51.2v-51.2ZM2355.2,2304h-51.2v51.2h51.2v-51.2ZM2457.6,2304h-51.2v51.2h51.2v-51.2ZM2560,2304h-51.2v51.2h51.2v-51.2ZM2099.2,2355.2h-51.2v51.2h51.2v-51.2ZM2201.6,2355.2h-51.2v51.2h51.2v-51.2ZM2304,2355.2h-51.2v51.2h51.2v-51.2ZM2406.4,2355.2h-51.2v51.2h51.2v-51.2ZM2508.8,2355.2h-51.2v51.2h51.2v-51.2ZM2150.4,2406.4h-51.2v51.2h51.2v-51.2ZM2252.8,2406.4h-51.2v51.2h51.2v-51.2ZM2355.2,2406.4h-51.2v51.2h51.2v-51.2ZM2457.6,2406.4h-51.2v51.2h51.2v-51.2ZM2560,2406.4h-51.2v51.2h51.2v-51.2ZM2099.2,2457.6h-51.2v51.2h51.2v-51.2ZM2201.6,2457.6h-51.2v51.2h51.2v-51.2ZM2304,2457.6h-51.2v51.2h51.2v-51.2ZM2406.4,2457.6h-51.2v51.2h51.2v-51.2ZM2508.8,2457.6h-51.2v51.2h51.2v-51.2ZM2150.4,2508.8h-51.2v51.2h51.2v-51.2ZM2252.8,2508.8h-51.2v51.2h51.2v-51.2ZM2355.2,2508.8h-51.2v51.2h51.2v-51.2ZM2457.6,2508.8h-51.2v51.2h51.2v-51.2ZM2560,2508.8h-51.2v51.2h51.2v-51.2ZM1587.2,2099.2h-51.2v-51.2h51.2v51.2ZM1689.6,2048h-51.2v51.2h51.2v-51.2ZM1792,2048h-51.2v51.2h51.2v-51.2ZM1894.4,2048h-51.2v51.2h51.2v-51.2ZM1996.8,2048h-51.2v51.2h51.2v-51.2ZM1638.4,2099.2h-51.2v51.2h51.2v-51.2ZM1740.8,2099.2h-51.2v51.2h51.2v-51.2ZM1843.2,2099.2h-51.2v51.2h51.2v-51.2ZM1945.6,2099.2h-51.2v51.2h51.2v-51.2ZM2048,2099.2h-51.2v51.2h51.2v-51.2ZM1587.2,2150.4h-51.2v51.2h51.2v-51.2ZM1689.6,2150.4h-51.2v51.2h51.2v-51.2ZM1792,2150.4h-51.2v51.2h51.2v-51.2ZM1894.4,2150.4h-51.2v51.2h51.2v-51.2ZM1996.8,2150.4h-51.2v51.2h51.2v-51.2ZM1638.4,2201.6h-51.2v51.2h51.2v-51.2ZM1740.8,2201.6h-51.2v51.2h51.2v-51.2ZM1843.2,2201.6h-51.2v51.2h51.2v-51.2ZM1945.6,2201.6h-51.2v51.2h51.2v-51.2ZM2048,2201.6h-51.2v51.2h51.2v-51.2ZM1587.2,2252.8h-51.2v51.2h51.2v-51.2ZM1689.6,2252.8h-51.2v51.2h51.2v-51.2ZM1792,2252.8h-51.2v51.2h51.2v-51.2ZM1894.4,2252.8h-51.2v51.2h51.2v-51.2ZM1996.8,2252.8h-51.2v51.2h51.2v-51.2ZM1638.4,2304h-51.2v51.2h51.2v-51.2ZM1740.8,2304h-51.2v51.2h51.2v-51.2ZM1843.2,2304h-51.2v51.2h51.2v-51.2ZM1945.6,2304h-51.2v51.2h51.2v-51.2ZM2048,2304h-51.2v51.2h51.2v-51.2ZM1587.2,2355.2h-51.2v51.2h51.2v-51.2ZM1689.6,2355.2h-51.2v51.2h51.2v-51.2ZM1792,2355.2h-51.2v51.2h51.2v-51.2ZM1894.4,2355.2h-51.2v51.2h51.2v-51.2ZM1996.8,2355.2h-51.2v51.2h51.2v-51.2ZM1638.4,2406.4h-51.2v51.2h51.2v-51.2ZM1740.8,2406.4h-51.2v51.2h51.2v-51.2ZM1843.2,2406.4h-51.2v51.2h51.2v-51.2ZM1945.6,2406.4h-51.2v51.2h51.2v-51.2ZM2048,2406.4h-51.2v51.2h51.2v-51.2ZM1587.2,2457.6h-51.2v51.2h51.2v-51.2ZM1689.6,2457.6h-51.2v51.2h51.2v-51.2ZM1792,2457.6h-51.2v51.2h51.2v-51.2ZM1894.4,2457.6h-51.2v51.2h51.2v-51.2ZM1996.8,2457.6h-51.2v51.2h51.2v-51.2ZM1638.4,2508.8h-51.2v51.2h51.2v-51.2ZM1740.8,2508.8h-51.2v51.2h51.2v-51.2ZM1843.2,2508.8h-51.2v51.2h51.2v-51.2ZM1945.6,2508.8h-51.2v51.2h51.2v-51.2ZM2048,2508.8h-51.2v51.2h51.2v-51.2ZM1075.2,2099.2h-51.2v-51.2h51.2v51.2ZM1177.6,2048h-51.2v51.2h51.2v-51.2ZM1280,2048h-51.2v51.2h51.2v-51.2ZM1382.4,2048h-51.2v51.2h51.2v-51.2ZM1484.8,2048h-51.2v51.2h51.2v-51.2ZM1126.4,2099.2h-51.2v51.2h51.2v-51.2ZM1228.8,2099.2h-51.2v51.2h51.2v-51.2ZM1331.2,2099.2h-51.2v51.2h51.2v-51.2ZM1433.6,2099.2h-51.2v51.2h51.2v-51.2ZM1536,2099.2h-51.2v51.2h51.2v-51.2ZM1075.2,2150.4h-51.2v51.2h51.2v-51.2ZM1177.6,2150.4h-51.2v51.2h51.2v-51.2ZM1280,2150.4h-51.2v51.2h51.2v-51.2ZM1382.4,2150.4h-51.2v51.2h51.2v-51.2ZM1484.8,2150.4h-51.2v51.2h51.2v-51.2ZM1126.4,2201.6h-51.2v51.2h51.2v-51.2ZM1228.8,2201.6h-51.2v51.2h51.2v-51.2ZM1331.2,2201.6h-51.2v51.2h51.2v-51.2ZM1433.6,2201.6h-51.2v51.2h51.2v-51.2ZM1536,2201.6h-51.2v51.2h51.2v-51.2ZM1075.2,2252.8h-51.2v51.2h51.2v-51.2ZM1177.6,2252.8h-51.2v51.2h51.2v-51.2ZM1280,2252.8h-51.2v51.2h51.2v-51.2ZM1382.4,2252.8h-51.2v51.2h51.2v-51.2ZM1484.8,2252.8h-51.2v51.2h51.2v-51.2ZM1126.4,2304h-51.2v51.2h51.2v-51.2ZM1228.8,2304h-51.2v51.2h51.2v-51.2ZM1331.2,2304h-51.2v51.2h51.2v-51.2ZM1433.6,2304h-51.2v51.2h51.2v-51.2ZM1536,2304h-51.2v51.2h51.2v-51.2ZM1075.2,2355.2h-51.2v51.2h51.2v-51.2ZM1177.6,2355.2h-51.2v51.2h51.2v-51.2ZM1280,2355.2h-51.2v51.2h51.2v-51.2ZM1382.4,2355.2h-51.2v51.2h51.2v-51.2ZM1484.8,2355.2h-51.2v51.2h51.2v-51.2ZM1126.4,2406.4h-51.2v51.2h51.2v-51.2ZM1228.8,2406.4h-51.2v51.2h51.2v-51.2ZM1331.2,2406.4h-51.2v51.2h51.2v-51.2ZM1433.6,2406.4h-51.2v51.2h51.2v-51.2ZM1536,2406.4h-51.2v51.2h51.2v-51.2ZM1075.2,2457.6h-51.2v51.2h51.2v-51.2ZM1177.6,2457.6h-51.2v51.2h51.2v-51.2ZM1280,2457.6h-51.2v51.2h51.2v-51.2ZM1382.4,2457.6h-51.2v51.2h51.2v-51.2ZM1484.8,2457.6h-51.2v51.2h51.2v-51.2ZM1126.4,2508.8h-51.2v51.2h51.2v-51.2ZM1228.8,2508.8h-51.2v51.2h51.2v-51.2ZM1331.2,2508.8h-51.2v51.2h51.2v-51.2ZM1433.6,2508.8h-51.2v51.2h51.2v-51.2ZM1536,2508.8h-51.2v51.2h51.2v-51.2ZM563.2,2099.2h-51.2v-51.2h51.2v51.2ZM665.6,2048h-51.2v51.2h51.2v-51.2ZM768,2048h-51.2v51.2h51.2v-51.2ZM870.4,2048h-51.2v51.2h51.2v-51.2ZM972.8,2048h-51.2v51.2h51.2v-51.2ZM614.4,2099.2h-51.2v51.2h51.2v-51.2ZM716.8,2099.2h-51.2v51.2h51.2v-51.2ZM819.2,2099.2h-51.2v51.2h51.2v-51.2ZM921.6,2099.2h-51.2v51.2h51.2v-51.2ZM1024,2099.2h-51.2v51.2h51.2v-51.2ZM563.2,2150.4h-51.2v51.2h51.2v-51.2ZM665.6,2150.4h-51.2v51.2h51.2v-51.2ZM768,2150.4h-51.2v51.2h51.2v-51.2ZM870.4,2150.4h-51.2v51.2h51.2v-51.2ZM972.8,2150.4h-51.2v51.2h51.2v-51.2ZM614.4,2201.6h-51.2v51.2h51.2v-51.2ZM716.8,2201.6h-51.2v51.2h51.2v-51.2ZM819.2,2201.6h-51.2v51.2h51.2v-51.2ZM921.6,2201.6h-51.2v51.2h51.2v-51.2ZM1024,2201.6h-51.2v51.2h51.2v-51.2ZM563.2,2252.8h-51.2v51.2h51.2v-51.2ZM665.6,2252.8h-51.2v51.2h51.2v-51.2ZM768,2252.8h-51.2v51.2h51.2v-51.2ZM870.4,2252.8h-51.2v51.2h51.2v-51.2ZM972.8,2252.8h-51.2v51.2h51.2v-51.2ZM614.4,2304h-51.2v51.2h51.2v-51.2ZM716.8,2304h-51.2v51.2h51.2v-51.2ZM819.2,2304h-51.2v51.2h51.2v-51.2ZM921.6,2304h-51.2v51.2h51.2v-51.2ZM1024,2304h-51.2v51.2h51.2v-51.2ZM563.2,2355.2h-51.2v51.2h51.2v-51.2ZM665.6,2355.2h-51.2v51.2h51.2v-51.2ZM768,2355.2h-51.2v51.2h51.2v-51.2ZM870.4,2355.2h-51.2v51.2h51.2v-51.2ZM972.8,2355.2h-51.2v51.2h51.2v-51.2ZM614.4,2406.4h-51.2v51.2h51.2v-51.2ZM716.8,2406.4h-51.2v51.2h51.2v-51.2ZM819.2,2406.4h-51.2v51.2h51.2v-51.2ZM921.6,2406.4h-51.2v51.2h51.2v-51.2ZM1024,2406.4h-51.2v51.2h51.2v-51.2ZM563.2,2457.6h-51.2v51.2h51.2v-51.2ZM665.6,2457.6h-51.2v51.2h51.2v-51.2ZM768,2457.6h-51.2v51.2h51.2v-51.2ZM870.4,2457.6h-51.2v51.2h51.2v-51.2ZM972.8,2457.6h-51.2v51.2h51.2v-51.2ZM614.4,2508.8h-51.2v51.2h51.2v-51.2ZM716.8,2508.8h-51.2v51.2h51.2v-51.2ZM819.2,2508.8h-51.2v51.2h51.2v-51.2ZM921.6,2508.8h-51.2v51.2h51.2v-51.2ZM1024,2508.8h-51.2v51.2h51.2v-51.2ZM51.2,2099.2H0v-51.2h51.2v51.2ZM153.6,2048h-51.2v51.2h51.2v-51.2ZM256,2048h-51.2v51.2h51.2v-51.2ZM358.4,2048h-51.2v51.2h51.2v-51.2ZM460.8,2048h-51.2v51.2h51.2v-51.2ZM102.4,2099.2h-51.2v51.2h51.2v-51.2ZM204.8,2099.2h-51.2v51.2h51.2v-51.2ZM307.2,2099.2h-51.2v51.2h51.2v-51.2ZM409.6,2099.2h-51.2v51.2h51.2v-51.2ZM512,2099.2h-51.2v51.2h51.2v-51.2ZM51.2,2150.4H0v51.2h51.2v-51.2ZM153.6,2150.4h-51.2v51.2h51.2v-51.2ZM256,2150.4h-51.2v51.2h51.2v-51.2ZM358.4,2150.4h-51.2v51.2h51.2v-51.2ZM460.8,2150.4h-51.2v51.2h51.2v-51.2ZM102.4,2201.6h-51.2v51.2h51.2v-51.2ZM204.8,2201.6h-51.2v51.2h51.2v-51.2ZM307.2,2201.6h-51.2v51.2h51.2v-51.2ZM409.6,2201.6h-51.2v51.2h51.2v-51.2ZM512,2201.6h-51.2v51.2h51.2v-51.2ZM51.2,2252.8H0v51.2h51.2v-51.2ZM153.6,2252.8h-51.2v51.2h51.2v-51.2ZM256,2252.8h-51.2v51.2h51.2v-51.2ZM358.4,2252.8h-51.2v51.2h51.2v-51.2ZM460.8,2252.8h-51.2v51.2h51.2v-51.2ZM102.4,2304h-51.2v51.2h51.2v-51.2ZM204.8,2304h-51.2v51.2h51.2v-51.2ZM307.2,2304h-51.2v51.2h51.2v-51.2ZM409.6,2304h-51.2v51.2h51.2v-51.2ZM512,2304h-51.2v51.2h51.2v-51.2ZM51.2,2355.2H0v51.2h51.2v-51.2ZM153.6,2355.2h-51.2v51.2h51.2v-51.2ZM256,2355.2h-51.2v51.2h51.2v-51.2ZM358.4,2355.2h-51.2v51.2h51.2v-51.2ZM460.8,2355.2h-51.2v51.2h51.2v-51.2ZM102.4,2406.4h-51.2v51.2h51.2v-51.2ZM204.8,2406.4h-51.2v51.2h51.2v-51.2ZM307.2,2406.4h-51.2v51.2h51.2v-51.2ZM409.6,2406.4h-51.2v51.2h51.2v-51.2ZM512,2406.4h-51.2v51.2h51.2v-51.2ZM51.2,2457.6H0v51.2h51.2v-51.2ZM153.6,2457.6h-51.2v51.2h51.2v-51.2ZM256,2457.6h-51.2v51.2h51.2v-51.2ZM358.4,2457.6h-51.2v51.2h51.2v-51.2ZM460.8,2457.6h-51.2v51.2h51.2v-51.2ZM102.4,2508.8h-51.2v51.2h51.2v-51.2ZM204.8,2508.8h-51.2v51.2h51.2v-51.2ZM307.2,2508.8h-51.2v51.2h51.2v-51.2ZM409.6,2508.8h-51.2v51.2h51.2v-51.2ZM512,2508.8h-51.2v51.2h51.2v-51.2ZM2099.2,1587.2h-51.2v-51.2h51.2v51.2ZM2201.6,1536h-51.2v51.2h51.2v-51.2ZM2304,1536h-51.2v51.2h51.2v-51.2ZM2406.4,1536h-51.2v51.2h51.2v-51.2ZM2508.8,1536h-51.2v51.2h51.2v-51.2ZM2150.4,1587.2h-51.2v51.2h51.2v-51.2ZM2252.8,1587.2h-51.2v51.2h51.2v-51.2ZM2355.2,1587.2h-51.2v51.2h51.2v-51.2ZM2457.6,1587.2h-51.2v51.2h51.2v-51.2ZM2560,1587.2h-51.2v51.2h51.2v-51.2ZM2099.2,1638.4h-51.2v51.2h51.2v-51.2ZM2201.6,1638.4h-51.2v51.2h51.2v-51.2ZM2304,1638.4h-51.2v51.2h51.2v-51.2ZM2406.4,1638.4h-51.2v51.2h51.2v-51.2ZM2508.8,1638.4h-51.2v51.2h51.2v-51.2ZM2150.4,1689.6h-51.2v51.2h51.2v-51.2ZM2252.8,1689.6h-51.2v51.2h51.2v-51.2ZM2355.2,1689.6h-51.2v51.2h51.2v-51.2ZM2457.6,1689.6h-51.2v51.2h51.2v-51.2ZM2560,1689.6h-51.2v51.2h51.2v-51.2ZM2099.2,1740.8h-51.2v51.2h51.2v-51.2ZM2201.6,1740.8h-51.2v51.2h51.2v-51.2ZM2304,1740.8h-51.2v51.2h51.2v-51.2ZM2406.4,1740.8h-51.2v51.2h51.2v-51.2ZM2508.8,1740.8h-51.2v51.2h51.2v-51.2ZM2150.4,1792h-51.2v51.2h51.2v-51.2ZM2252.8,1792h-51.2v51.2h51.2v-51.2ZM2355.2,1792h-51.2v51.2h51.2v-51.2ZM2457.6,1792h-51.2v51.2h51.2v-51.2ZM2560,1792h-51.2v51.2h51.2v-51.2ZM2099.2,1843.2h-51.2v51.2h51.2v-51.2ZM2201.6,1843.2h-51.2v51.2h51.2v-51.2ZM2304,1843.2h-51.2v51.2h51.2v-51.2ZM2406.4,1843.2h-51.2v51.2h51.2v-51.2ZM2508.8,1843.2h-51.2v51.2h51.2v-51.2ZM2150.4,1894.4h-51.2v51.2h51.2v-51.2ZM2252.8,1894.4h-51.2v51.2h51.2v-51.2ZM2355.2,1894.4h-51.2v51.2h51.2v-51.2ZM2457.6,1894.4h-51.2v51.2h51.2v-51.2ZM2560,1894.4h-51.2v51.2h51.2v-51.2ZM2099.2,1945.6h-51.2v51.2h51.2v-51.2ZM2201.6,1945.6h-51.2v51.2h51.2v-51.2ZM2304,1945.6h-51.2v51.2h51.2v-51.2ZM2406.4,1945.6h-51.2v51.2h51.2v-51.2ZM2508.8,1945.6h-51.2v51.2h51.2v-51.2ZM2150.4,1996.8h-51.2v51.2h51.2v-51.2ZM2252.8,1996.8h-51.2v51.2h51.2v-51.2ZM2355.2,1996.8h-51.2v51.2h51.2v-51.2ZM2457.6,1996.8h-51.2v51.2h51.2v-51.2ZM2560,1996.8h-51.2v51.2h51.2v-51.2ZM1587.2,1587.2h-51.2v-51.2h51.2v51.2ZM1689.6,1536h-51.2v51.2h51.2v-51.2ZM1792,1536h-51.2v51.2h51.2v-51.2ZM1894.4,1536h-51.2v51.2h51.2v-51.2ZM1996.8,1536h-51.2v51.2h51.2v-51.2ZM1638.4,1587.2h-51.2v51.2h51.2v-51.2ZM1740.8,1587.2h-51.2v51.2h51.2v-51.2ZM1843.2,1587.2h-51.2v51.2h51.2v-51.2ZM1945.6,1587.2h-51.2v51.2h51.2v-51.2ZM2048,1587.2h-51.2v51.2h51.2v-51.2ZM1587.2,1638.4h-51.2v51.2h51.2v-51.2ZM1689.6,1638.4h-51.2v51.2h51.2v-51.2ZM1792,1638.4h-51.2v51.2h51.2v-51.2ZM1894.4,1638.4h-51.2v51.2h51.2v-51.2ZM1996.8,1638.4h-51.2v51.2h51.2v-51.2ZM1638.4,1689.6h-51.2v51.2h51.2v-51.2ZM1740.8,1689.6h-51.2v51.2h51.2v-51.2ZM1843.2,1689.6h-51.2v51.2h51.2v-51.2ZM1945.6,1689.6h-51.2v51.2h51.2v-51.2ZM2048,1689.6h-51.2v51.2h51.2v-51.2ZM1587.2,1740.8h-51.2v51.2h51.2v-51.2ZM1689.6,1740.8h-51.2v51.2h51.2v-51.2ZM1792,1740.8h-51.2v51.2h51.2v-51.2ZM1894.4,1740.8h-51.2v51.2h51.2v-51.2ZM1996.8,1740.8h-51.2v51.2h51.2v-51.2ZM1638.4,1792h-51.2v51.2h51.2v-51.2ZM1740.8,1792h-51.2v51.2h51.2v-51.2ZM1843.2,1792h-51.2v51.2h51.2v-51.2ZM1945.6,1792h-51.2v51.2h51.2v-51.2ZM2048,1792h-51.2v51.2h51.2v-51.2ZM1587.2,1843.2h-51.2v51.2h51.2v-51.2ZM1689.6,1843.2h-51.2v51.2h51.2v-51.2ZM1792,1843.2h-51.2v51.2h51.2v-51.2ZM1894.4,1843.2h-51.2v51.2h51.2v-51.2ZM1996.8,1843.2h-51.2v51.2h51.2v-51.2ZM1638.4,1894.4h-51.2v51.2h51.2v-51.2ZM1740.8,1894.4h-51.2v51.2h51.2v-51.2ZM1843.2,1894.4h-51.2v51.2h51.2v-51.2ZM1945.6,1894.4h-51.2v51.2h51.2v-51.2ZM2048,1894.4h-51.2v51.2h51.2v-51.2ZM1587.2,1945.6h-51.2v51.2h51.2v-51.2ZM1689.6,1945.6h-51.2v51.2h51.2v-51.2ZM1792,1945.6h-51.2v51.2h51.2v-51.2ZM1894.4,1945.6h-51.2v51.2h51.2v-51.2ZM1996.8,1945.6h-51.2v51.2h51.2v-51.2ZM1638.4,1996.8h-51.2v51.2h51.2v-51.2ZM1740.8,1996.8h-51.2v51.2h51.2v-51.2ZM1843.2,1996.8h-51.2v51.2h51.2v-51.2ZM1945.6,1996.8h-51.2v51.2h51.2v-51.2ZM2048,1996.8h-51.2v51.2h51.2v-51.2ZM1075.2,1587.2h-51.2v-51.2h51.2v51.2ZM1177.6,1536h-51.2v51.2h51.2v-51.2ZM1280,1536h-51.2v51.2h51.2v-51.2ZM1382.4,1536h-51.2v51.2h51.2v-51.2ZM1484.8,1536h-51.2v51.2h51.2v-51.2ZM1126.4,1587.2h-51.2v51.2h51.2v-51.2ZM1228.8,1587.2h-51.2v51.2h51.2v-51.2ZM1331.2,1587.2h-51.2v51.2h51.2v-51.2ZM1433.6,1587.2h-51.2v51.2h51.2v-51.2ZM1536,1587.2h-51.2v51.2h51.2v-51.2ZM1075.2,1638.4h-51.2v51.2h51.2v-51.2ZM1177.6,1638.4h-51.2v51.2h51.2v-51.2ZM1280,1638.4h-51.2v51.2h51.2v-51.2ZM1382.4,1638.4h-51.2v51.2h51.2v-51.2ZM1484.8,1638.4h-51.2v51.2h51.2v-51.2ZM1126.4,1689.6h-51.2v51.2h51.2v-51.2ZM1228.8,1689.6h-51.2v51.2h51.2v-51.2ZM1331.2,1689.6h-51.2v51.2h51.2v-51.2ZM1433.6,1689.6h-51.2v51.2h51.2v-51.2ZM1536,1689.6h-51.2v51.2h51.2v-51.2ZM1075.2,1740.8h-51.2v51.2h51.2v-51.2ZM1177.6,1740.8h-51.2v51.2h51.2v-51.2ZM1280,1740.8h-51.2v51.2h51.2v-51.2ZM1382.4,1740.8h-51.2v51.2h51.2v-51.2ZM1484.8,1740.8h-51.2v51.2h51.2v-51.2ZM1126.4,1792h-51.2v51.2h51.2v-51.2ZM1228.8,1792h-51.2v51.2h51.2v-51.2ZM1331.2,1792h-51.2v51.2h51.2v-51.2ZM1433.6,1792h-51.2v51.2h51.2v-51.2ZM1536,1792h-51.2v51.2h51.2v-51.2ZM1075.2,1843.2h-51.2v51.2h51.2v-51.2ZM1177.6,1843.2h-51.2v51.2h51.2v-51.2ZM1280,1843.2h-51.2v51.2h51.2v-51.2ZM1382.4,1843.2h-51.2v51.2h51.2v-51.2ZM1484.8,1843.2h-51.2v51.2h51.2v-51.2ZM1126.4,1894.4h-51.2v51.2h51.2v-51.2ZM1228.8,1894.4h-51.2v51.2h51.2v-51.2ZM1331.2,1894.4h-51.2v51.2h51.2v-51.2ZM1433.6,1894.4h-51.2v51.2h51.2v-51.2ZM1536,1894.4h-51.2v51.2h51.2v-51.2ZM1075.2,1945.6h-51.2v51.2h51.2v-51.2ZM1177.6,1945.6h-51.2v51.2h51.2v-51.2ZM1280,1945.6h-51.2v51.2h51.2v-51.2ZM1382.4,1945.6h-51.2v51.2h51.2v-51.2ZM1484.8,1945.6h-51.2v51.2h51.2v-51.2ZM1126.4,1996.8h-51.2v51.2h51.2v-51.2ZM1228.8,1996.8h-51.2v51.2h51.2v-51.2ZM1331.2,1996.8h-51.2v51.2h51.2v-51.2ZM1433.6,1996.8h-51.2v51.2h51.2v-51.2ZM1536,1996.8h-51.2v51.2h51.2v-51.2ZM563.2,1587.2h-51.2v-51.2h51.2v51.2ZM665.6,1536h-51.2v51.2h51.2v-51.2ZM768,1536h-51.2v51.2h51.2v-51.2ZM870.4,1536h-51.2v51.2h51.2v-51.2ZM972.8,1536h-51.2v51.2h51.2v-51.2ZM614.4,1587.2h-51.2v51.2h51.2v-51.2ZM716.8,1587.2h-51.2v51.2h51.2v-51.2ZM819.2,1587.2h-51.2v51.2h51.2v-51.2ZM921.6,1587.2h-51.2v51.2h51.2v-51.2ZM1024,1587.2h-51.2v51.2h51.2v-51.2ZM563.2,1638.4h-51.2v51.2h51.2v-51.2ZM665.6,1638.4h-51.2v51.2h51.2v-51.2ZM768,1638.4h-51.2v51.2h51.2v-51.2ZM870.4,1638.4h-51.2v51.2h51.2v-51.2ZM972.8,1638.4h-51.2v51.2h51.2v-51.2ZM614.4,1689.6h-51.2v51.2h51.2v-51.2ZM716.8,1689.6h-51.2v51.2h51.2v-51.2ZM819.2,1689.6h-51.2v51.2h51.2v-51.2ZM921.6,1689.6h-51.2v51.2h51.2v-51.2ZM1024,1689.6h-51.2v51.2h51.2v-51.2ZM563.2,1740.8h-51.2v51.2h51.2v-51.2ZM665.6,1740.8h-51.2v51.2h51.2v-51.2ZM768,1740.8h-51.2v51.2h51.2v-51.2ZM870.4,1740.8h-51.2v51.2h51.2v-51.2ZM972.8,1740.8h-51.2v51.2h51.2v-51.2ZM614.4,1792h-51.2v51.2h51.2v-51.2ZM716.8,1792h-51.2v51.2h51.2v-51.2ZM819.2,1792h-51.2v51.2h51.2v-51.2ZM921.6,1792h-51.2v51.2h51.2v-51.2ZM1024,1792h-51.2v51.2h51.2v-51.2ZM563.2,1843.2h-51.2v51.2h51.2v-51.2ZM665.6,1843.2h-51.2v51.2h51.2v-51.2ZM768,1843.2h-51.2v51.2h51.2v-51.2ZM870.4,1843.2h-51.2v51.2h51.2v-51.2ZM972.8,1843.2h-51.2v51.2h51.2v-51.2ZM614.4,1894.4h-51.2v51.2h51.2v-51.2ZM716.8,1894.4h-51.2v51.2h51.2v-51.2ZM819.2,1894.4h-51.2v51.2h51.2v-51.2ZM921.6,1894.4h-51.2v51.2h51.2v-51.2ZM1024,1894.4h-51.2v51.2h51.2v-51.2ZM563.2,1945.6h-51.2v51.2h51.2v-51.2ZM665.6,1945.6h-51.2v51.2h51.2v-51.2ZM768,1945.6h-51.2v51.2h51.2v-51.2ZM870.4,1945.6h-51.2v51.2h51.2v-51.2ZM972.8,1945.6h-51.2v51.2h51.2v-51.2ZM614.4,1996.8h-51.2v51.2h51.2v-51.2ZM716.8,1996.8h-51.2v51.2h51.2v-51.2ZM819.2,1996.8h-51.2v51.2h51.2v-51.2ZM921.6,1996.8h-51.2v51.2h51.2v-51.2ZM1024,1996.8h-51.2v51.2h51.2v-51.2ZM51.2,1587.2H0v-51.2h51.2v51.2ZM153.6,1536h-51.2v51.2h51.2v-51.2ZM256,1536h-51.2v51.2h51.2v-51.2ZM358.4,1536h-51.2v51.2h51.2v-51.2ZM460.8,1536h-51.2v51.2h51.2v-51.2ZM102.4,1587.2h-51.2v51.2h51.2v-51.2ZM204.8,1587.2h-51.2v51.2h51.2v-51.2ZM307.2,1587.2h-51.2v51.2h51.2v-51.2ZM409.6,1587.2h-51.2v51.2h51.2v-51.2ZM512,1587.2h-51.2v51.2h51.2v-51.2ZM51.2,1638.4H0v51.2h51.2v-51.2ZM153.6,1638.4h-51.2v51.2h51.2v-51.2ZM256,1638.4h-51.2v51.2h51.2v-51.2ZM358.4,1638.4h-51.2v51.2h51.2v-51.2ZM460.8,1638.4h-51.2v51.2h51.2v-51.2ZM102.4,1689.6h-51.2v51.2h51.2v-51.2ZM204.8,1689.6h-51.2v51.2h51.2v-51.2ZM307.2,1689.6h-51.2v51.2h51.2v-51.2ZM409.6,1689.6h-51.2v51.2h51.2v-51.2ZM512,1689.6h-51.2v51.2h51.2v-51.2ZM51.2,1740.8H0v51.2h51.2v-51.2ZM153.6,1740.8h-51.2v51.2h51.2v-51.2ZM256,1740.8h-51.2v51.2h51.2v-51.2ZM358.4,1740.8h-51.2v51.2h51.2v-51.2ZM460.8,1740.8h-51.2v51.2h51.2v-51.2ZM102.4,1792h-51.2v51.2h51.2v-51.2ZM204.8,1792h-51.2v51.2h51.2v-51.2ZM307.2,1792h-51.2v51.2h51.2v-51.2ZM409.6,1792h-51.2v51.2h51.2v-51.2ZM512,1792h-51.2v51.2h51.2v-51.2ZM51.2,1843.2H0v51.2h51.2v-51.2ZM153.6,1843.2h-51.2v51.2h51.2v-51.2ZM256,1843.2h-51.2v51.2h51.2v-51.2ZM358.4,1843.2h-51.2v51.2h51.2v-51.2ZM460.8,1843.2h-51.2v51.2h51.2v-51.2ZM102.4,1894.4h-51.2v51.2h51.2v-51.2ZM204.8,1894.4h-51.2v51.2h51.2v-51.2ZM307.2,1894.4h-51.2v51.2h51.2v-51.2ZM409.6,1894.4h-51.2v51.2h51.2v-51.2ZM512,1894.4h-51.2v51.2h51.2v-51.2ZM51.2,1945.6H0v51.2h51.2v-51.2ZM153.6,1945.6h-51.2v51.2h51.2v-51.2ZM256,1945.6h-51.2v51.2h51.2v-51.2ZM358.4,1945.6h-51.2v51.2h51.2v-51.2ZM460.8,1945.6h-51.2v51.2h51.2v-51.2ZM102.4,1996.8h-51.2v51.2h51.2v-51.2ZM204.8,1996.8h-51.2v51.2h51.2v-51.2ZM307.2,1996.8h-51.2v51.2h51.2v-51.2ZM409.6,1996.8h-51.2v51.2h51.2v-51.2ZM512,1996.8h-51.2v51.2h51.2v-51.2ZM2099.2,1075.2h-51.2v-51.2h51.2v51.2ZM2201.6,1024h-51.2v51.2h51.2v-51.2ZM2304,1024h-51.2v51.2h51.2v-51.2ZM2406.4,1024h-51.2v51.2h51.2v-51.2ZM2508.8,1024h-51.2v51.2h51.2v-51.2ZM2150.4,1075.2h-51.2v51.2h51.2v-51.2ZM2252.8,1075.2h-51.2v51.2h51.2v-51.2ZM2355.2,1075.2h-51.2v51.2h51.2v-51.2ZM2457.6,1075.2h-51.2v51.2h51.2v-51.2ZM2560,1075.2h-51.2v51.2h51.2v-51.2ZM2099.2,1126.4h-51.2v51.2h51.2v-51.2ZM2201.6,1126.4h-51.2v51.2h51.2v-51.2ZM2304,1126.4h-51.2v51.2h51.2v-51.2ZM2406.4,1126.4h-51.2v51.2h51.2v-51.2ZM2508.8,1126.4h-51.2v51.2h51.2v-51.2ZM2150.4,1177.6h-51.2v51.2h51.2v-51.2ZM2252.8,1177.6h-51.2v51.2h51.2v-51.2ZM2355.2,1177.6h-51.2v51.2h51.2v-51.2ZM2457.6,1177.6h-51.2v51.2h51.2v-51.2ZM2560,1177.6h-51.2v51.2h51.2v-51.2ZM2099.2,1228.8h-51.2v51.2h51.2v-51.2ZM2201.6,1228.8h-51.2v51.2h51.2v-51.2ZM2304,1228.8h-51.2v51.2h51.2v-51.2ZM2406.4,1228.8h-51.2v51.2h51.2v-51.2ZM2508.8,1228.8h-51.2v51.2h51.2v-51.2ZM2150.4,1280h-51.2v51.2h51.2v-51.2ZM2252.8,1280h-51.2v51.2h51.2v-51.2ZM2355.2,1280h-51.2v51.2h51.2v-51.2ZM2457.6,1280h-51.2v51.2h51.2v-51.2ZM2560,1280h-51.2v51.2h51.2v-51.2ZM2099.2,1331.2h-51.2v51.2h51.2v-51.2ZM2201.6,1331.2h-51.2v51.2h51.2v-51.2ZM2304,1331.2h-51.2v51.2h51.2v-51.2ZM2406.4,1331.2h-51.2v51.2h51.2v-51.2ZM2508.8,1331.2h-51.2v51.2h51.2v-51.2ZM2150.4,1382.4h-51.2v51.2h51.2v-51.2ZM2252.8,1382.4h-51.2v51.2h51.2v-51.2ZM2355.2,1382.4h-51.2v51.2h51.2v-51.2ZM2457.6,1382.4h-51.2v51.2h51.2v-51.2ZM2560,1382.4h-51.2v51.2h51.2v-51.2ZM2099.2,1433.6h-51.2v51.2h51.2v-51.2ZM2201.6,1433.6h-51.2v51.2h51.2v-51.2ZM2304,1433.6h-51.2v51.2h51.2v-51.2ZM2406.4,1433.6h-51.2v51.2h51.2v-51.2ZM2508.8,1433.6h-51.2v51.2h51.2v-51.2ZM2150.4,1484.8h-51.2v51.2h51.2v-51.2ZM2252.8,1484.8h-51.2v51.2h51.2v-51.2ZM2355.2,1484.8h-51.2v51.2h51.2v-51.2ZM2457.6,1484.8h-51.2v51.2h51.2v-51.2ZM2560,1484.8h-51.2v51.2h51.2v-51.2ZM1587.2,1075.2h-51.2v-51.2h51.2v51.2ZM1689.6,1024h-51.2v51.2h51.2v-51.2ZM1792,1024h-51.2v51.2h51.2v-51.2ZM1894.4,1024h-51.2v51.2h51.2v-51.2ZM1996.8,1024h-51.2v51.2h51.2v-51.2ZM1638.4,1075.2h-51.2v51.2h51.2v-51.2ZM1740.8,1075.2h-51.2v51.2h51.2v-51.2ZM1843.2,1075.2h-51.2v51.2h51.2v-51.2ZM1945.6,1075.2h-51.2v51.2h51.2v-51.2ZM2048,1075.2h-51.2v51.2h51.2v-51.2ZM1587.2,1126.4h-51.2v51.2h51.2v-51.2ZM1689.6,1126.4h-51.2v51.2h51.2v-51.2ZM1792,1126.4h-51.2v51.2h51.2v-51.2ZM1894.4,1126.4h-51.2v51.2h51.2v-51.2ZM1996.8,1126.4h-51.2v51.2h51.2v-51.2ZM1638.4,1177.6h-51.2v51.2h51.2v-51.2ZM1740.8,1177.6h-51.2v51.2h51.2v-51.2ZM1843.2,1177.6h-51.2v51.2h51.2v-51.2ZM1945.6,1177.6h-51.2v51.2h51.2v-51.2ZM2048,1177.6h-51.2v51.2h51.2v-51.2ZM1587.2,1228.8h-51.2v51.2h51.2v-51.2ZM1689.6,1228.8h-51.2v51.2h51.2v-51.2ZM1792,1228.8h-51.2v51.2h51.2v-51.2ZM1894.4,1228.8h-51.2v51.2h51.2v-51.2ZM1996.8,1228.8h-51.2v51.2h51.2v-51.2ZM1638.4,1280h-51.2v51.2h51.2v-51.2ZM1740.8,1280h-51.2v51.2h51.2v-51.2ZM1843.2,1280h-51.2v51.2h51.2v-51.2ZM1945.6,1280h-51.2v51.2h51.2v-51.2ZM2048,1280h-51.2v51.2h51.2v-51.2ZM1587.2,1331.2h-51.2v51.2h51.2v-51.2ZM1689.6,1331.2h-51.2v51.2h51.2v-51.2ZM1792,1331.2h-51.2v51.2h51.2v-51.2ZM1894.4,1331.2h-51.2v51.2h51.2v-51.2ZM1996.8,1331.2h-51.2v51.2h51.2v-51.2ZM1638.4,1382.4h-51.2v51.2h51.2v-51.2ZM1740.8,1382.4h-51.2v51.2h51.2v-51.2ZM1843.2,1382.4h-51.2v51.2h51.2v-51.2ZM1945.6,1382.4h-51.2v51.2h51.2v-51.2ZM2048,1382.4h-51.2v51.2h51.2v-51.2ZM1587.2,1433.6h-51.2v51.2h51.2v-51.2ZM1689.6,1433.6h-51.2v51.2h51.2v-51.2ZM1792,1433.6h-51.2v51.2h51.2v-51.2ZM1894.4,1433.6h-51.2v51.2h51.2v-51.2ZM1996.8,1433.6h-51.2v51.2h51.2v-51.2ZM1638.4,1484.8h-51.2v51.2h51.2v-51.2ZM1740.8,1484.8h-51.2v51.2h51.2v-51.2ZM1843.2,1484.8h-51.2v51.2h51.2v-51.2ZM1945.6,1484.8h-51.2v51.2h51.2v-51.2ZM2048,1484.8h-51.2v51.2h51.2v-51.2ZM1075.2,1075.2h-51.2v-51.2h51.2v51.2ZM1177.6,1024h-51.2v51.2h51.2v-51.2ZM1280,1024h-51.2v51.2h51.2v-51.2ZM1382.4,1024h-51.2v51.2h51.2v-51.2ZM1484.8,1024h-51.2v51.2h51.2v-51.2ZM1126.4,1075.2h-51.2v51.2h51.2v-51.2ZM1228.8,1075.2h-51.2v51.2h51.2v-51.2ZM1331.2,1075.2h-51.2v51.2h51.2v-51.2ZM1433.6,1075.2h-51.2v51.2h51.2v-51.2ZM1536,1075.2h-51.2v51.2h51.2v-51.2ZM1075.2,1126.4h-51.2v51.2h51.2v-51.2ZM1177.6,1126.4h-51.2v51.2h51.2v-51.2ZM1280,1126.4h-51.2v51.2h51.2v-51.2ZM1382.4,1126.4h-51.2v51.2h51.2v-51.2ZM1484.8,1126.4h-51.2v51.2h51.2v-51.2ZM1126.4,1177.6h-51.2v51.2h51.2v-51.2ZM1228.8,1177.6h-51.2v51.2h51.2v-51.2ZM1331.2,1177.6h-51.2v51.2h51.2v-51.2ZM1433.6,1177.6h-51.2v51.2h51.2v-51.2ZM1536,1177.6h-51.2v51.2h51.2v-51.2ZM1075.2,1228.8h-51.2v51.2h51.2v-51.2ZM1177.6,1228.8h-51.2v51.2h51.2v-51.2ZM1280,1228.8h-51.2v51.2h51.2v-51.2ZM1382.4,1228.8h-51.2v51.2h51.2v-51.2ZM1484.8,1228.8h-51.2v51.2h51.2v-51.2ZM1126.4,1280h-51.2v51.2h51.2v-51.2ZM1228.8,1280h-51.2v51.2h51.2v-51.2ZM1331.2,1280h-51.2v51.2h51.2v-51.2ZM1433.6,1280h-51.2v51.2h51.2v-51.2ZM1536,1280h-51.2v51.2h51.2v-51.2ZM1075.2,1331.2h-51.2v51.2h51.2v-51.2ZM1177.6,1331.2h-51.2v51.2h51.2v-51.2ZM1280,1331.2h-51.2v51.2h51.2v-51.2ZM1382.4,1331.2h-51.2v51.2h51.2v-51.2ZM1484.8,1331.2h-51.2v51.2h51.2v-51.2ZM1126.4,1382.4h-51.2v51.2h51.2v-51.2ZM1228.8,1382.4h-51.2v51.2h51.2v-51.2ZM1331.2,1382.4h-51.2v51.2h51.2v-51.2ZM1433.6,1382.4h-51.2v51.2h51.2v-51.2ZM1536,1382.4h-51.2v51.2h51.2v-51.2ZM1075.2,1433.6h-51.2v51.2h51.2v-51.2ZM1177.6,1433.6h-51.2v51.2h51.2v-51.2ZM1280,1433.6h-51.2v51.2h51.2v-51.2ZM1382.4,1433.6h-51.2v51.2h51.2v-51.2ZM1484.8,1433.6h-51.2v51.2h51.2v-51.2ZM1126.4,1484.8h-51.2v51.2h51.2v-51.2ZM1228.8,1484.8h-51.2v51.2h51.2v-51.2ZM1331.2,1484.8h-51.2v51.2h51.2v-51.2ZM1433.6,1484.8h-51.2v51.2h51.2v-51.2ZM1536,1484.8h-51.2v51.2h51.2v-51.2ZM563.2,1075.2h-51.2v-51.2h51.2v51.2ZM665.6,1024h-51.2v51.2h51.2v-51.2ZM768,1024h-51.2v51.2h51.2v-51.2ZM870.4,1024h-51.2v51.2h51.2v-51.2ZM972.8,1024h-51.2v51.2h51.2v-51.2ZM614.4,1075.2h-51.2v51.2h51.2v-51.2ZM716.8,1075.2h-51.2v51.2h51.2v-51.2ZM819.2,1075.2h-51.2v51.2h51.2v-51.2ZM921.6,1075.2h-51.2v51.2h51.2v-51.2ZM1024,1075.2h-51.2v51.2h51.2v-51.2ZM563.2,1126.4h-51.2v51.2h51.2v-51.2ZM665.6,1126.4h-51.2v51.2h51.2v-51.2ZM768,1126.4h-51.2v51.2h51.2v-51.2ZM870.4,1126.4h-51.2v51.2h51.2v-51.2ZM972.8,1126.4h-51.2v51.2h51.2v-51.2ZM614.4,1177.6h-51.2v51.2h51.2v-51.2ZM716.8,1177.6h-51.2v51.2h51.2v-51.2ZM819.2,1177.6h-51.2v51.2h51.2v-51.2ZM921.6,1177.6h-51.2v51.2h51.2v-51.2ZM1024,1177.6h-51.2v51.2h51.2v-51.2ZM563.2,1228.8h-51.2v51.2h51.2v-51.2ZM665.6,1228.8h-51.2v51.2h51.2v-51.2ZM768,1228.8h-51.2v51.2h51.2v-51.2ZM870.4,1228.8h-51.2v51.2h51.2v-51.2ZM972.8,1228.8h-51.2v51.2h51.2v-51.2ZM614.4,1280h-51.2v51.2h51.2v-51.2ZM716.8,1280h-51.2v51.2h51.2v-51.2ZM819.2,1280h-51.2v51.2h51.2v-51.2ZM921.6,1280h-51.2v51.2h51.2v-51.2ZM1024,1280h-51.2v51.2h51.2v-51.2ZM563.2,1331.2h-51.2v51.2h51.2v-51.2ZM665.6,1331.2h-51.2v51.2h51.2v-51.2ZM768,1331.2h-51.2v51.2h51.2v-51.2ZM870.4,1331.2h-51.2v51.2h51.2v-51.2ZM972.8,1331.2h-51.2v51.2h51.2v-51.2ZM614.4,1382.4h-51.2v51.2h51.2v-51.2ZM716.8,1382.4h-51.2v51.2h51.2v-51.2ZM819.2,1382.4h-51.2v51.2h51.2v-51.2ZM921.6,1382.4h-51.2v51.2h51.2v-51.2ZM1024,1382.4h-51.2v51.2h51.2v-51.2ZM563.2,1433.6h-51.2v51.2h51.2v-51.2ZM665.6,1433.6h-51.2v51.2h51.2v-51.2ZM768,1433.6h-51.2v51.2h51.2v-51.2ZM870.4,1433.6h-51.2v51.2h51.2v-51.2ZM972.8,1433.6h-51.2v51.2h51.2v-51.2ZM614.4,1484.8h-51.2v51.2h51.2v-51.2ZM716.8,1484.8h-51.2v51.2h51.2v-51.2ZM819.2,1484.8h-51.2v51.2h51.2v-51.2ZM921.6,1484.8h-51.2v51.2h51.2v-51.2ZM1024,1484.8h-51.2v51.2h51.2v-51.2ZM51.2,1075.2H0v-51.2h51.2v51.2ZM153.6,1024h-51.2v51.2h51.2v-51.2ZM256,1024h-51.2v51.2h51.2v-51.2ZM358.4,1024h-51.2v51.2h51.2v-51.2ZM460.8,1024h-51.2v51.2h51.2v-51.2ZM102.4,1075.2h-51.2v51.2h51.2v-51.2ZM204.8,1075.2h-51.2v51.2h51.2v-51.2ZM307.2,1075.2h-51.2v51.2h51.2v-51.2ZM409.6,1075.2h-51.2v51.2h51.2v-51.2ZM512,1075.2h-51.2v51.2h51.2v-51.2ZM51.2,1126.4H0v51.2h51.2v-51.2ZM153.6,1126.4h-51.2v51.2h51.2v-51.2ZM256,1126.4h-51.2v51.2h51.2v-51.2ZM358.4,1126.4h-51.2v51.2h51.2v-51.2ZM460.8,1126.4h-51.2v51.2h51.2v-51.2ZM102.4,1177.6h-51.2v51.2h51.2v-51.2ZM204.8,1177.6h-51.2v51.2h51.2v-51.2ZM307.2,1177.6h-51.2v51.2h51.2v-51.2ZM409.6,1177.6h-51.2v51.2h51.2v-51.2ZM512,1177.6h-51.2v51.2h51.2v-51.2ZM51.2,1228.8H0v51.2h51.2v-51.2ZM153.6,1228.8h-51.2v51.2h51.2v-51.2ZM256,1228.8h-51.2v51.2h51.2v-51.2ZM358.4,1228.8h-51.2v51.2h51.2v-51.2ZM460.8,1228.8h-51.2v51.2h51.2v-51.2ZM102.4,1280h-51.2v51.2h51.2v-51.2ZM204.8,1280h-51.2v51.2h51.2v-51.2ZM307.2,1280h-51.2v51.2h51.2v-51.2ZM409.6,1280h-51.2v51.2h51.2v-51.2ZM512,1280h-51.2v51.2h51.2v-51.2ZM51.2,1331.2H0v51.2h51.2v-51.2ZM153.6,1331.2h-51.2v51.2h51.2v-51.2ZM256,1331.2h-51.2v51.2h51.2v-51.2ZM358.4,1331.2h-51.2v51.2h51.2v-51.2ZM460.8,1331.2h-51.2v51.2h51.2v-51.2ZM102.4,1382.4h-51.2v51.2h51.2v-51.2ZM204.8,1382.4h-51.2v51.2h51.2v-51.2ZM307.2,1382.4h-51.2v51.2h51.2v-51.2ZM409.6,1382.4h-51.2v51.2h51.2v-51.2ZM512,1382.4h-51.2v51.2h51.2v-51.2ZM51.2,1433.6H0v51.2h51.2v-51.2ZM153.6,1433.6h-51.2v51.2h51.2v-51.2ZM256,1433.6h-51.2v51.2h51.2v-51.2ZM358.4,1433.6h-51.2v51.2h51.2v-51.2ZM460.8,1433.6h-51.2v51.2h51.2v-51.2ZM102.4,1484.8h-51.2v51.2h51.2v-51.2ZM204.8,1484.8h-51.2v51.2h51.2v-51.2ZM307.2,1484.8h-51.2v51.2h51.2v-51.2ZM409.6,1484.8h-51.2v51.2h51.2v-51.2ZM512,1484.8h-51.2v51.2h51.2v-51.2ZM2099.2,563.2h-51.2v-51.2h51.2v51.2ZM2201.6,512h-51.2v51.2h51.2v-51.2ZM2304,512h-51.2v51.2h51.2v-51.2ZM2406.4,512h-51.2v51.2h51.2v-51.2ZM2508.8,512h-51.2v51.2h51.2v-51.2ZM2150.4,563.2h-51.2v51.2h51.2v-51.2ZM2252.8,563.2h-51.2v51.2h51.2v-51.2ZM2355.2,563.2h-51.2v51.2h51.2v-51.2ZM2457.6,563.2h-51.2v51.2h51.2v-51.2ZM2560,563.2h-51.2v51.2h51.2v-51.2ZM2099.2,614.4h-51.2v51.2h51.2v-51.2ZM2201.6,614.4h-51.2v51.2h51.2v-51.2ZM2304,614.4h-51.2v51.2h51.2v-51.2ZM2406.4,614.4h-51.2v51.2h51.2v-51.2ZM2508.8,614.4h-51.2v51.2h51.2v-51.2ZM2150.4,665.6h-51.2v51.2h51.2v-51.2ZM2252.8,665.6h-51.2v51.2h51.2v-51.2ZM2355.2,665.6h-51.2v51.2h51.2v-51.2ZM2457.6,665.6h-51.2v51.2h51.2v-51.2ZM2560,665.6h-51.2v51.2h51.2v-51.2ZM2099.2,716.8h-51.2v51.2h51.2v-51.2ZM2201.6,716.8h-51.2v51.2h51.2v-51.2ZM2304,716.8h-51.2v51.2h51.2v-51.2ZM2406.4,716.8h-51.2v51.2h51.2v-51.2ZM2508.8,716.8h-51.2v51.2h51.2v-51.2ZM2150.4,768h-51.2v51.2h51.2v-51.2ZM2252.8,768h-51.2v51.2h51.2v-51.2ZM2355.2,768h-51.2v51.2h51.2v-51.2ZM2457.6,768h-51.2v51.2h51.2v-51.2ZM2560,768h-51.2v51.2h51.2v-51.2ZM2099.2,819.2h-51.2v51.2h51.2v-51.2ZM2201.6,819.2h-51.2v51.2h51.2v-51.2ZM2304,819.2h-51.2v51.2h51.2v-51.2ZM2406.4,819.2h-51.2v51.2h51.2v-51.2ZM2508.8,819.2h-51.2v51.2h51.2v-51.2ZM2150.4,870.4h-51.2v51.2h51.2v-51.2ZM2252.8,870.4h-51.2v51.2h51.2v-51.2ZM2355.2,870.4h-51.2v51.2h51.2v-51.2ZM2457.6,870.4h-51.2v51.2h51.2v-51.2ZM2560,870.4h-51.2v51.2h51.2v-51.2ZM2099.2,921.6h-51.2v51.2h51.2v-51.2ZM2201.6,921.6h-51.2v51.2h51.2v-51.2ZM2304,921.6h-51.2v51.2h51.2v-51.2ZM2406.4,921.6h-51.2v51.2h51.2v-51.2ZM2508.8,921.6h-51.2v51.2h51.2v-51.2ZM2150.4,972.8h-51.2v51.2h51.2v-51.2ZM2252.8,972.8h-51.2v51.2h51.2v-51.2ZM2355.2,972.8h-51.2v51.2h51.2v-51.2ZM2457.6,972.8h-51.2v51.2h51.2v-51.2ZM2560,972.8h-51.2v51.2h51.2v-51.2ZM1587.2,563.2h-51.2v-51.2h51.2v51.2ZM1689.6,512h-51.2v51.2h51.2v-51.2ZM1792,512h-51.2v51.2h51.2v-51.2ZM1894.4,512h-51.2v51.2h51.2v-51.2ZM1996.8,512h-51.2v51.2h51.2v-51.2ZM1638.4,563.2h-51.2v51.2h51.2v-51.2ZM1740.8,563.2h-51.2v51.2h51.2v-51.2ZM1843.2,563.2h-51.2v51.2h51.2v-51.2ZM1945.6,563.2h-51.2v51.2h51.2v-51.2ZM2048,563.2h-51.2v51.2h51.2v-51.2ZM1587.2,614.4h-51.2v51.2h51.2v-51.2ZM1689.6,614.4h-51.2v51.2h51.2v-51.2ZM1792,614.4h-51.2v51.2h51.2v-51.2ZM1894.4,614.4h-51.2v51.2h51.2v-51.2ZM1996.8,614.4h-51.2v51.2h51.2v-51.2ZM1638.4,665.6h-51.2v51.2h51.2v-51.2ZM1740.8,665.6h-51.2v51.2h51.2v-51.2ZM1843.2,665.6h-51.2v51.2h51.2v-51.2ZM1945.6,665.6h-51.2v51.2h51.2v-51.2ZM2048,665.6h-51.2v51.2h51.2v-51.2ZM1587.2,716.8h-51.2v51.2h51.2v-51.2ZM1689.6,716.8h-51.2v51.2h51.2v-51.2ZM1792,716.8h-51.2v51.2h51.2v-51.2ZM1894.4,716.8h-51.2v51.2h51.2v-51.2ZM1996.8,716.8h-51.2v51.2h51.2v-51.2ZM1638.4,768h-51.2v51.2h51.2v-51.2ZM1740.8,768h-51.2v51.2h51.2v-51.2ZM1843.2,768h-51.2v51.2h51.2v-51.2ZM1945.6,768h-51.2v51.2h51.2v-51.2ZM2048,768h-51.2v51.2h51.2v-51.2ZM1587.2,819.2h-51.2v51.2h51.2v-51.2ZM1689.6,819.2h-51.2v51.2h51.2v-51.2ZM1792,819.2h-51.2v51.2h51.2v-51.2ZM1894.4,819.2h-51.2v51.2h51.2v-51.2ZM1996.8,819.2h-51.2v51.2h51.2v-51.2ZM1638.4,870.4h-51.2v51.2h51.2v-51.2ZM1740.8,870.4h-51.2v51.2h51.2v-51.2ZM1843.2,870.4h-51.2v51.2h51.2v-51.2ZM1945.6,870.4h-51.2v51.2h51.2v-51.2ZM2048,870.4h-51.2v51.2h51.2v-51.2ZM1587.2,921.6h-51.2v51.2h51.2v-51.2ZM1689.6,921.6h-51.2v51.2h51.2v-51.2ZM1792,921.6h-51.2v51.2h51.2v-51.2ZM1894.4,921.6h-51.2v51.2h51.2v-51.2ZM1996.8,921.6h-51.2v51.2h51.2v-51.2ZM1638.4,972.8h-51.2v51.2h51.2v-51.2ZM1740.8,972.8h-51.2v51.2h51.2v-51.2ZM1843.2,972.8h-51.2v51.2h51.2v-51.2ZM1945.6,972.8h-51.2v51.2h51.2v-51.2ZM2048,972.8h-51.2v51.2h51.2v-51.2ZM1075.2,563.2h-51.2v-51.2h51.2v51.2ZM1177.6,512h-51.2v51.2h51.2v-51.2ZM1280,512h-51.2v51.2h51.2v-51.2ZM1382.4,512h-51.2v51.2h51.2v-51.2ZM1484.8,512h-51.2v51.2h51.2v-51.2ZM1126.4,563.2h-51.2v51.2h51.2v-51.2ZM1228.8,563.2h-51.2v51.2h51.2v-51.2ZM1331.2,563.2h-51.2v51.2h51.2v-51.2ZM1433.6,563.2h-51.2v51.2h51.2v-51.2ZM1536,563.2h-51.2v51.2h51.2v-51.2ZM1075.2,614.4h-51.2v51.2h51.2v-51.2ZM1177.6,614.4h-51.2v51.2h51.2v-51.2ZM1280,614.4h-51.2v51.2h51.2v-51.2ZM1382.4,614.4h-51.2v51.2h51.2v-51.2ZM1484.8,614.4h-51.2v51.2h51.2v-51.2ZM1126.4,665.6h-51.2v51.2h51.2v-51.2ZM1228.8,665.6h-51.2v51.2h51.2v-51.2ZM1331.2,665.6h-51.2v51.2h51.2v-51.2ZM1433.6,665.6h-51.2v51.2h51.2v-51.2ZM1536,665.6h-51.2v51.2h51.2v-51.2ZM1075.2,716.8h-51.2v51.2h51.2v-51.2ZM1177.6,716.8h-51.2v51.2h51.2v-51.2ZM1280,716.8h-51.2v51.2h51.2v-51.2ZM1382.4,716.8h-51.2v51.2h51.2v-51.2ZM1484.8,716.8h-51.2v51.2h51.2v-51.2ZM1126.4,768h-51.2v51.2h51.2v-51.2ZM1228.8,768h-51.2v51.2h51.2v-51.2ZM1331.2,768h-51.2v51.2h51.2v-51.2ZM1433.6,768h-51.2v51.2h51.2v-51.2ZM1536,768h-51.2v51.2h51.2v-51.2ZM1075.2,819.2h-51.2v51.2h51.2v-51.2ZM1177.6,819.2h-51.2v51.2h51.2v-51.2ZM1280,819.2h-51.2v51.2h51.2v-51.2ZM1382.4,819.2h-51.2v51.2h51.2v-51.2ZM1484.8,819.2h-51.2v51.2h51.2v-51.2ZM1126.4,870.4h-51.2v51.2h51.2v-51.2ZM1228.8,870.4h-51.2v51.2h51.2v-51.2ZM1331.2,870.4h-51.2v51.2h51.2v-51.2ZM1433.6,870.4h-51.2v51.2h51.2v-51.2ZM1536,870.4h-51.2v51.2h51.2v-51.2ZM1075.2,921.6h-51.2v51.2h51.2v-51.2ZM1177.6,921.6h-51.2v51.2h51.2v-51.2ZM1280,921.6h-51.2v51.2h51.2v-51.2ZM1382.4,921.6h-51.2v51.2h51.2v-51.2ZM1484.8,921.6h-51.2v51.2h51.2v-51.2ZM1126.4,972.8h-51.2v51.2h51.2v-51.2ZM1228.8,972.8h-51.2v51.2h51.2v-51.2ZM1331.2,972.8h-51.2v51.2h51.2v-51.2ZM1433.6,972.8h-51.2v51.2h51.2v-51.2ZM1536,972.8h-51.2v51.2h51.2v-51.2ZM563.2,563.2h-51.2v-51.2h51.2v51.2ZM665.6,512h-51.2v51.2h51.2v-51.2ZM768,512h-51.2v51.2h51.2v-51.2ZM870.4,512h-51.2v51.2h51.2v-51.2ZM972.8,512h-51.2v51.2h51.2v-51.2ZM614.4,563.2h-51.2v51.2h51.2v-51.2ZM716.8,563.2h-51.2v51.2h51.2v-51.2ZM819.2,563.2h-51.2v51.2h51.2v-51.2ZM921.6,563.2h-51.2v51.2h51.2v-51.2ZM1024,563.2h-51.2v51.2h51.2v-51.2ZM563.2,614.4h-51.2v51.2h51.2v-51.2ZM665.6,614.4h-51.2v51.2h51.2v-51.2ZM768,614.4h-51.2v51.2h51.2v-51.2ZM870.4,614.4h-51.2v51.2h51.2v-51.2ZM972.8,614.4h-51.2v51.2h51.2v-51.2ZM614.4,665.6h-51.2v51.2h51.2v-51.2ZM716.8,665.6h-51.2v51.2h51.2v-51.2ZM819.2,665.6h-51.2v51.2h51.2v-51.2ZM921.6,665.6h-51.2v51.2h51.2v-51.2ZM1024,665.6h-51.2v51.2h51.2v-51.2ZM563.2,716.8h-51.2v51.2h51.2v-51.2ZM665.6,716.8h-51.2v51.2h51.2v-51.2ZM768,716.8h-51.2v51.2h51.2v-51.2ZM870.4,716.8h-51.2v51.2h51.2v-51.2ZM972.8,716.8h-51.2v51.2h51.2v-51.2ZM614.4,768h-51.2v51.2h51.2v-51.2ZM716.8,768h-51.2v51.2h51.2v-51.2ZM819.2,768h-51.2v51.2h51.2v-51.2ZM921.6,768h-51.2v51.2h51.2v-51.2ZM1024,768h-51.2v51.2h51.2v-51.2ZM563.2,819.2h-51.2v51.2h51.2v-51.2ZM665.6,819.2h-51.2v51.2h51.2v-51.2ZM768,819.2h-51.2v51.2h51.2v-51.2ZM870.4,819.2h-51.2v51.2h51.2v-51.2ZM972.8,819.2h-51.2v51.2h51.2v-51.2ZM614.4,870.4h-51.2v51.2h51.2v-51.2ZM716.8,870.4h-51.2v51.2h51.2v-51.2ZM819.2,870.4h-51.2v51.2h51.2v-51.2ZM921.6,870.4h-51.2v51.2h51.2v-51.2ZM1024,870.4h-51.2v51.2h51.2v-51.2ZM563.2,921.6h-51.2v51.2h51.2v-51.2ZM665.6,921.6h-51.2v51.2h51.2v-51.2ZM768,921.6h-51.2v51.2h51.2v-51.2ZM870.4,921.6h-51.2v51.2h51.2v-51.2ZM972.8,921.6h-51.2v51.2h51.2v-51.2ZM614.4,972.8h-51.2v51.2h51.2v-51.2ZM716.8,972.8h-51.2v51.2h51.2v-51.2ZM819.2,972.8h-51.2v51.2h51.2v-51.2ZM921.6,972.8h-51.2v51.2h51.2v-51.2ZM1024,972.8h-51.2v51.2h51.2v-51.2ZM51.2,563.2H0v-51.2h51.2v51.2ZM153.6,512h-51.2v51.2h51.2v-51.2ZM256,512h-51.2v51.2h51.2v-51.2ZM358.4,512h-51.2v51.2h51.2v-51.2ZM460.8,512h-51.2v51.2h51.2v-51.2ZM102.4,563.2h-51.2v51.2h51.2v-51.2ZM204.8,563.2h-51.2v51.2h51.2v-51.2ZM307.2,563.2h-51.2v51.2h51.2v-51.2ZM409.6,563.2h-51.2v51.2h51.2v-51.2ZM512,563.2h-51.2v51.2h51.2v-51.2ZM51.2,614.4H0v51.2h51.2v-51.2ZM153.6,614.4h-51.2v51.2h51.2v-51.2ZM256,614.4h-51.2v51.2h51.2v-51.2ZM358.4,614.4h-51.2v51.2h51.2v-51.2ZM460.8,614.4h-51.2v51.2h51.2v-51.2ZM102.4,665.6h-51.2v51.2h51.2v-51.2ZM204.8,665.6h-51.2v51.2h51.2v-51.2ZM307.2,665.6h-51.2v51.2h51.2v-51.2ZM409.6,665.6h-51.2v51.2h51.2v-51.2ZM512,665.6h-51.2v51.2h51.2v-51.2ZM51.2,716.8H0v51.2h51.2v-51.2ZM153.6,716.8h-51.2v51.2h51.2v-51.2ZM256,716.8h-51.2v51.2h51.2v-51.2ZM358.4,716.8h-51.2v51.2h51.2v-51.2ZM460.8,716.8h-51.2v51.2h51.2v-51.2ZM102.4,768h-51.2v51.2h51.2v-51.2ZM204.8,768h-51.2v51.2h51.2v-51.2ZM307.2,768h-51.2v51.2h51.2v-51.2ZM409.6,768h-51.2v51.2h51.2v-51.2ZM512,768h-51.2v51.2h51.2v-51.2ZM51.2,819.2H0v51.2h51.2v-51.2ZM153.6,819.2h-51.2v51.2h51.2v-51.2ZM256,819.2h-51.2v51.2h51.2v-51.2ZM358.4,819.2h-51.2v51.2h51.2v-51.2ZM460.8,819.2h-51.2v51.2h51.2v-51.2ZM102.4,870.4h-51.2v51.2h51.2v-51.2ZM204.8,870.4h-51.2v51.2h51.2v-51.2ZM307.2,870.4h-51.2v51.2h51.2v-51.2ZM409.6,870.4h-51.2v51.2h51.2v-51.2ZM512,870.4h-51.2v51.2h51.2v-51.2ZM51.2,921.6H0v51.2h51.2v-51.2ZM153.6,921.6h-51.2v51.2h51.2v-51.2ZM256,921.6h-51.2v51.2h51.2v-51.2ZM358.4,921.6h-51.2v51.2h51.2v-51.2ZM460.8,921.6h-51.2v51.2h51.2v-51.2ZM102.4,972.8h-51.2v51.2h51.2v-51.2ZM204.8,972.8h-51.2v51.2h51.2v-51.2ZM307.2,972.8h-51.2v51.2h51.2v-51.2ZM409.6,972.8h-51.2v51.2h51.2v-51.2ZM512,972.8h-51.2v51.2h51.2v-51.2ZM2099.2,51.2h-51.2V0h51.2v51.2ZM2201.6,0h-51.2v51.2h51.2V0ZM2304,0h-51.2v51.2h51.2V0ZM2406.4,0h-51.2v51.2h51.2V0ZM2508.8,0h-51.2v51.2h51.2V0ZM2150.4,51.2h-51.2v51.2h51.2v-51.2ZM2252.8,51.2h-51.2v51.2h51.2v-51.2ZM2355.2,51.2h-51.2v51.2h51.2v-51.2ZM2457.6,51.2h-51.2v51.2h51.2v-51.2ZM2560,51.2h-51.2v51.2h51.2v-51.2ZM2099.2,102.4h-51.2v51.2h51.2v-51.2ZM2201.6,102.4h-51.2v51.2h51.2v-51.2ZM2304,102.4h-51.2v51.2h51.2v-51.2ZM2406.4,102.4h-51.2v51.2h51.2v-51.2ZM2508.8,102.4h-51.2v51.2h51.2v-51.2ZM2150.4,153.6h-51.2v51.2h51.2v-51.2ZM2252.8,153.6h-51.2v51.2h51.2v-51.2ZM2355.2,153.6h-51.2v51.2h51.2v-51.2ZM2457.6,153.6h-51.2v51.2h51.2v-51.2ZM2560,153.6h-51.2v51.2h51.2v-51.2ZM2099.2,204.8h-51.2v51.2h51.2v-51.2ZM2201.6,204.8h-51.2v51.2h51.2v-51.2ZM2304,204.8h-51.2v51.2h51.2v-51.2ZM2406.4,204.8h-51.2v51.2h51.2v-51.2ZM2508.8,204.8h-51.2v51.2h51.2v-51.2ZM2150.4,256h-51.2v51.2h51.2v-51.2ZM2252.8,256h-51.2v51.2h51.2v-51.2ZM2355.2,256h-51.2v51.2h51.2v-51.2ZM2457.6,256h-51.2v51.2h51.2v-51.2ZM2560,256h-51.2v51.2h51.2v-51.2ZM2099.2,307.2h-51.2v51.2h51.2v-51.2ZM2201.6,307.2h-51.2v51.2h51.2v-51.2ZM2304,307.2h-51.2v51.2h51.2v-51.2ZM2406.4,307.2h-51.2v51.2h51.2v-51.2ZM2508.8,307.2h-51.2v51.2h51.2v-51.2ZM2150.4,358.4h-51.2v51.2h51.2v-51.2ZM2252.8,358.4h-51.2v51.2h51.2v-51.2ZM2355.2,358.4h-51.2v51.2h51.2v-51.2ZM2457.6,358.4h-51.2v51.2h51.2v-51.2ZM2560,358.4h-51.2v51.2h51.2v-51.2ZM2099.2,409.6h-51.2v51.2h51.2v-51.2ZM2201.6,409.6h-51.2v51.2h51.2v-51.2ZM2304,409.6h-51.2v51.2h51.2v-51.2ZM2406.4,409.6h-51.2v51.2h51.2v-51.2ZM2508.8,409.6h-51.2v51.2h51.2v-51.2ZM2150.4,460.8h-51.2v51.2h51.2v-51.2ZM2252.8,460.8h-51.2v51.2h51.2v-51.2ZM2355.2,460.8h-51.2v51.2h51.2v-51.2ZM2457.6,460.8h-51.2v51.2h51.2v-51.2ZM2560,460.8h-51.2v51.2h51.2v-51.2ZM1587.2,51.2h-51.2V0h51.2v51.2ZM1689.6,0h-51.2v51.2h51.2V0ZM1792,0h-51.2v51.2h51.2V0ZM1894.4,0h-51.2v51.2h51.2V0ZM1996.8,0h-51.2v51.2h51.2V0ZM1638.4,51.2h-51.2v51.2h51.2v-51.2ZM1740.8,51.2h-51.2v51.2h51.2v-51.2ZM1843.2,51.2h-51.2v51.2h51.2v-51.2ZM1945.6,51.2h-51.2v51.2h51.2v-51.2ZM2048,51.2h-51.2v51.2h51.2v-51.2ZM1587.2,102.4h-51.2v51.2h51.2v-51.2ZM1689.6,102.4h-51.2v51.2h51.2v-51.2ZM1792,102.4h-51.2v51.2h51.2v-51.2ZM1894.4,102.4h-51.2v51.2h51.2v-51.2ZM1996.8,102.4h-51.2v51.2h51.2v-51.2ZM1638.4,153.6h-51.2v51.2h51.2v-51.2ZM1740.8,153.6h-51.2v51.2h51.2v-51.2ZM1843.2,153.6h-51.2v51.2h51.2v-51.2ZM1945.6,153.6h-51.2v51.2h51.2v-51.2ZM2048,153.6h-51.2v51.2h51.2v-51.2ZM1587.2,204.8h-51.2v51.2h51.2v-51.2ZM1689.6,204.8h-51.2v51.2h51.2v-51.2ZM1792,204.8h-51.2v51.2h51.2v-51.2ZM1894.4,204.8h-51.2v51.2h51.2v-51.2ZM1996.8,204.8h-51.2v51.2h51.2v-51.2ZM1638.4,256h-51.2v51.2h51.2v-51.2ZM1740.8,256h-51.2v51.2h51.2v-51.2ZM1843.2,256h-51.2v51.2h51.2v-51.2ZM1945.6,256h-51.2v51.2h51.2v-51.2ZM2048,256h-51.2v51.2h51.2v-51.2ZM1587.2,307.2h-51.2v51.2h51.2v-51.2ZM1689.6,307.2h-51.2v51.2h51.2v-51.2ZM1792,307.2h-51.2v51.2h51.2v-51.2ZM1894.4,307.2h-51.2v51.2h51.2v-51.2ZM1996.8,307.2h-51.2v51.2h51.2v-51.2ZM1638.4,358.4h-51.2v51.2h51.2v-51.2ZM1740.8,358.4h-51.2v51.2h51.2v-51.2ZM1843.2,358.4h-51.2v51.2h51.2v-51.2ZM1945.6,358.4h-51.2v51.2h51.2v-51.2ZM2048,358.4h-51.2v51.2h51.2v-51.2ZM1587.2,409.6h-51.2v51.2h51.2v-51.2ZM1689.6,409.6h-51.2v51.2h51.2v-51.2ZM1792,409.6h-51.2v51.2h51.2v-51.2ZM1894.4,409.6h-51.2v51.2h51.2v-51.2ZM1996.8,409.6h-51.2v51.2h51.2v-51.2ZM1638.4,460.8h-51.2v51.2h51.2v-51.2ZM1740.8,460.8h-51.2v51.2h51.2v-51.2ZM1843.2,460.8h-51.2v51.2h51.2v-51.2ZM1945.6,460.8h-51.2v51.2h51.2v-51.2ZM2048,460.8h-51.2v51.2h51.2v-51.2ZM1075.2,51.2h-51.2V0h51.2v51.2ZM1177.6,0h-51.2v51.2h51.2V0ZM1280,0h-51.2v51.2h51.2V0ZM1382.4,0h-51.2v51.2h51.2V0ZM1484.8,0h-51.2v51.2h51.2V0ZM1126.4,51.2h-51.2v51.2h51.2v-51.2ZM1228.8,51.2h-51.2v51.2h51.2v-51.2ZM1331.2,51.2h-51.2v51.2h51.2v-51.2ZM1433.6,51.2h-51.2v51.2h51.2v-51.2ZM1536,51.2h-51.2v51.2h51.2v-51.2ZM1075.2,102.4h-51.2v51.2h51.2v-51.2ZM1177.6,102.4h-51.2v51.2h51.2v-51.2ZM1280,102.4h-51.2v51.2h51.2v-51.2ZM1382.4,102.4h-51.2v51.2h51.2v-51.2ZM1484.8,102.4h-51.2v51.2h51.2v-51.2ZM1126.4,153.6h-51.2v51.2h51.2v-51.2ZM1228.8,153.6h-51.2v51.2h51.2v-51.2ZM1331.2,153.6h-51.2v51.2h51.2v-51.2ZM1433.6,153.6h-51.2v51.2h51.2v-51.2ZM1536,153.6h-51.2v51.2h51.2v-51.2ZM1075.2,204.8h-51.2v51.2h51.2v-51.2ZM1177.6,204.8h-51.2v51.2h51.2v-51.2ZM1280,204.8h-51.2v51.2h51.2v-51.2ZM1382.4,204.8h-51.2v51.2h51.2v-51.2ZM1484.8,204.8h-51.2v51.2h51.2v-51.2ZM1126.4,256h-51.2v51.2h51.2v-51.2ZM1228.8,256h-51.2v51.2h51.2v-51.2ZM1331.2,256h-51.2v51.2h51.2v-51.2ZM1433.6,256h-51.2v51.2h51.2v-51.2ZM1536,256h-51.2v51.2h51.2v-51.2ZM1075.2,307.2h-51.2v51.2h51.2v-51.2ZM1177.6,307.2h-51.2v51.2h51.2v-51.2ZM1280,307.2h-51.2v51.2h51.2v-51.2ZM1382.4,307.2h-51.2v51.2h51.2v-51.2ZM1484.8,307.2h-51.2v51.2h51.2v-51.2ZM1126.4,358.4h-51.2v51.2h51.2v-51.2ZM1228.8,358.4h-51.2v51.2h51.2v-51.2ZM1331.2,358.4h-51.2v51.2h51.2v-51.2ZM1433.6,358.4h-51.2v51.2h51.2v-51.2ZM1536,358.4h-51.2v51.2h51.2v-51.2ZM1075.2,409.6h-51.2v51.2h51.2v-51.2ZM1177.6,409.6h-51.2v51.2h51.2v-51.2ZM1280,409.6h-51.2v51.2h51.2v-51.2ZM1382.4,409.6h-51.2v51.2h51.2v-51.2ZM1484.8,409.6h-51.2v51.2h51.2v-51.2ZM1126.4,460.8h-51.2v51.2h51.2v-51.2ZM1228.8,460.8h-51.2v51.2h51.2v-51.2ZM1331.2,460.8h-51.2v51.2h51.2v-51.2ZM1433.6,460.8h-51.2v51.2h51.2v-51.2ZM1536,460.8h-51.2v51.2h51.2v-51.2ZM563.2,51.2h-51.2V0h51.2v51.2ZM665.6,0h-51.2v51.2h51.2V0ZM768,0h-51.2v51.2h51.2V0ZM870.4,0h-51.2v51.2h51.2V0ZM972.8,0h-51.2v51.2h51.2V0ZM614.4,51.2h-51.2v51.2h51.2v-51.2ZM716.8,51.2h-51.2v51.2h51.2v-51.2ZM819.2,51.2h-51.2v51.2h51.2v-51.2ZM921.6,51.2h-51.2v51.2h51.2v-51.2ZM1024,51.2h-51.2v51.2h51.2v-51.2ZM563.2,102.4h-51.2v51.2h51.2v-51.2ZM665.6,102.4h-51.2v51.2h51.2v-51.2ZM768,102.4h-51.2v51.2h51.2v-51.2ZM870.4,102.4h-51.2v51.2h51.2v-51.2ZM972.8,102.4h-51.2v51.2h51.2v-51.2ZM614.4,153.6h-51.2v51.2h51.2v-51.2ZM716.8,153.6h-51.2v51.2h51.2v-51.2ZM819.2,153.6h-51.2v51.2h51.2v-51.2ZM921.6,153.6h-51.2v51.2h51.2v-51.2ZM1024,153.6h-51.2v51.2h51.2v-51.2ZM563.2,204.8h-51.2v51.2h51.2v-51.2ZM665.6,204.8h-51.2v51.2h51.2v-51.2ZM768,204.8h-51.2v51.2h51.2v-51.2ZM870.4,204.8h-51.2v51.2h51.2v-51.2ZM972.8,204.8h-51.2v51.2h51.2v-51.2ZM614.4,256h-51.2v51.2h51.2v-51.2ZM716.8,256h-51.2v51.2h51.2v-51.2ZM819.2,256h-51.2v51.2h51.2v-51.2ZM921.6,256h-51.2v51.2h51.2v-51.2ZM1024,256h-51.2v51.2h51.2v-51.2ZM563.2,307.2h-51.2v51.2h51.2v-51.2ZM665.6,307.2h-51.2v51.2h51.2v-51.2ZM768,307.2h-51.2v51.2h51.2v-51.2ZM870.4,307.2h-51.2v51.2h51.2v-51.2ZM972.8,307.2h-51.2v51.2h51.2v-51.2ZM614.4,358.4h-51.2v51.2h51.2v-51.2ZM716.8,358.4h-51.2v51.2h51.2v-51.2ZM819.2,358.4h-51.2v51.2h51.2v-51.2ZM921.6,358.4h-51.2v51.2h51.2v-51.2ZM1024,358.4h-51.2v51.2h51.2v-51.2ZM563.2,409.6h-51.2v51.2h51.2v-51.2ZM665.6,409.6h-51.2v51.2h51.2v-51.2ZM768,409.6h-51.2v51.2h51.2v-51.2ZM870.4,409.6h-51.2v51.2h51.2v-51.2ZM972.8,409.6h-51.2v51.2h51.2v-51.2ZM614.4,460.8h-51.2v51.2h51.2v-51.2ZM716.8,460.8h-51.2v51.2h51.2v-51.2ZM819.2,460.8h-51.2v51.2h51.2v-51.2ZM921.6,460.8h-51.2v51.2h51.2v-51.2ZM1024,460.8h-51.2v51.2h51.2v-51.2ZM51.2,51.2H0V0h51.2v51.2ZM153.6,0h-51.2v51.2h51.2V0ZM256,0h-51.2v51.2h51.2V0ZM358.4,0h-51.2v51.2h51.2V0ZM460.8,0h-51.2v51.2h51.2V0ZM102.4,51.2h-51.2v51.2h51.2v-51.2ZM204.8,51.2h-51.2v51.2h51.2v-51.2ZM307.2,51.2h-51.2v51.2h51.2v-51.2ZM409.6,51.2h-51.2v51.2h51.2v-51.2ZM512,51.2h-51.2v51.2h51.2v-51.2ZM51.2,102.4H0v51.2h51.2v-51.2ZM153.6,102.4h-51.2v51.2h51.2v-51.2ZM256,102.4h-51.2v51.2h51.2v-51.2ZM358.4,102.4h-51.2v51.2h51.2v-51.2ZM460.8,102.4h-51.2v51.2h51.2v-51.2ZM102.4,153.6h-51.2v51.2h51.2v-51.2ZM204.8,153.6h-51.2v51.2h51.2v-51.2ZM307.2,153.6h-51.2v51.2h51.2v-51.2ZM409.6,153.6h-51.2v51.2h51.2v-51.2ZM512,153.6h-51.2v51.2h51.2v-51.2ZM51.2,204.8H0v51.2h51.2v-51.2ZM153.6,204.8h-51.2v51.2h51.2v-51.2ZM256,204.8h-51.2v51.2h51.2v-51.2ZM358.4,204.8h-51.2v51.2h51.2v-51.2ZM460.8,204.8h-51.2v51.2h51.2v-51.2ZM102.4,256h-51.2v51.2h51.2v-51.2ZM204.8,256h-51.2v51.2h51.2v-51.2ZM307.2,256h-51.2v51.2h51.2v-51.2ZM409.6,256h-51.2v51.2h51.2v-51.2ZM512,256h-51.2v51.2h51.2v-51.2ZM51.2,307.2H0v51.2h51.2v-51.2ZM153.6,307.2h-51.2v51.2h51.2v-51.2ZM256,307.2h-51.2v51.2h51.2v-51.2ZM358.4,307.2h-51.2v51.2h51.2v-51.2ZM460.8,307.2h-51.2v51.2h51.2v-51.2ZM102.4,358.4h-51.2v51.2h51.2v-51.2ZM204.8,358.4h-51.2v51.2h51.2v-51.2ZM307.2,358.4h-51.2v51.2h51.2v-51.2ZM409.6,358.4h-51.2v51.2h51.2v-51.2ZM512,358.4h-51.2v51.2h51.2v-51.2ZM51.2,409.6H0v51.2h51.2v-51.2ZM153.6,409.6h-51.2v51.2h51.2v-51.2ZM256,409.6h-51.2v51.2h51.2v-51.2ZM358.4,409.6h-51.2v51.2h51.2v-51.2ZM460.8,409.6h-51.2v51.2h51.2v-51.2ZM102.4,460.8h-51.2v51.2h51.2v-51.2ZM204.8,460.8h-51.2v51.2h51.2v-51.2ZM307.2,460.8h-51.2v51.2h51.2v-51.2ZM409.6,460.8h-51.2v51.2h51.2v-51.2ZM512,460.8h-51.2v51.2h51.2v-51.2Z"/>
</svg>